<?xml version="1.0" encoding="UTF-8"?>
<svg xmlns="http://www.w3.org/2000/svg" xmlns:xlink="http://www.w3.org/1999/xlink" version="1.1" width="512" height="512" x="0" y="0" viewBox="0 0 98 98" style="enable-background:new 0 0 512 512" xml:space="preserve" class="">
  <g>
    <g fill="#cb008b">
      <path d="M56.307 60.24a133.176 133.176 0 0 1 7.133-10.99h5.732a1 1 0 0 0 0-2h-38.06a1 1 0 1 0 0 2h3.742a131.204 131.204 0 0 1 7.125 10.99c-10.692 1.473-18.037 6.1-18.037 11.51 0 6.729 11.069 12 25.2 12s25.2-5.271 25.2-12c0-5.411-7.342-10.037-18.035-11.51zM37.3 49.25h23.693a133.168 133.168 0 0 0-7.182 11.3 115.469 115.469 0 0 0-4.669 9.208 115.432 115.432 0 0 0-4.664-9.2A130.7 130.7 0 0 0 37.3 49.25zm11.841 32.5c-12.576 0-23.2-4.579-23.2-10 0-4.435 7.159-8.434 17.109-9.633a111.161 111.161 0 0 1 5.17 10.524 1 1 0 0 0 1.841 0 111.188 111.188 0 0 1 5.171-10.524c9.949 1.2 17.109 5.2 17.109 9.633.001 5.421-10.623 10-23.199 10zM87.137 44.041a1 1 0 0 0-1.241.677 3.552 3.552 0 0 1-3.391 2.532h-2.39a1 1 0 0 0 0 2h2.39a5.561 5.561 0 0 0 5.309-3.968 1 1 0 0 0-.677-1.241z" fill="#1800cb" opacity="1" data-original="#cb008b" class=""/>
      <path d="M20.181 47.25a8.1 8.1 0 0 1-8.036-8.08V23.73a7.488 7.488 0 0 1 7.48-7.48h42.89a23.243 23.243 0 0 1 14.344 5H70.2a4.067 4.067 0 0 0-4.062 4.063v4.875A4.066 4.066 0 0 0 70.2 34.25h14.681c.131.623.259 1.253.368 1.913a1 1 0 0 0 1.973-.326 49.146 49.146 0 0 0-.446-2.324 9.27 9.27 0 0 0-.119-.5A24.088 24.088 0 0 0 80.2 21.542a25.2 25.2 0 0 0-17.685-7.292h-42.89a9.491 9.491 0 0 0-9.48 9.48v15.44a10.107 10.107 0 0 0 10.024 10.08h.006a1 1 0 0 0 .006-2zm64.189-15H70.2a2.064 2.064 0 0 1-2.062-2.062v-4.875A2.065 2.065 0 0 1 70.2 23.25h8.86a22.112 22.112 0 0 1 5.31 9z" fill="#1800cb" opacity="1" data-original="#cb008b" class=""/>
      <path d="M20.7 21.25a4.067 4.067 0 0 0-4.062 4.063v4.875A4.066 4.066 0 0 0 20.7 34.25h35.879a4.067 4.067 0 0 0 4.063-4.062v-4.875a4.067 4.067 0 0 0-4.063-4.063zm6.438 11H20.7a2.064 2.064 0 0 1-2.062-2.062v-4.875A2.065 2.065 0 0 1 20.7 23.25h6.438zm10.5 0h-8.5v-9h8.5zm10.5 0h-8.5v-9h8.5zm10.5-6.937v4.875a2.065 2.065 0 0 1-2.063 2.062h-6.433v-9h6.437a2.065 2.065 0 0 1 2.063 2.063z" fill="#1800cb" opacity="1" data-original="#cb008b" class=""/>
    </g>
    <path fill="#ff7800" d="M49.142 60.25a4 4 0 1 1 4-4 4 4 0 0 1-4 4zm0-6a2 2 0 1 0 2 2 2 2 0 0 0-2-2zM74.642 54.25a6.5 6.5 0 1 1 6.5-6.5 6.508 6.508 0 0 1-6.5 6.5zm0-11a4.5 4.5 0 1 0 4.5 4.5 4.5 4.5 0 0 0-4.5-4.5zM25.642 54.25a6.5 6.5 0 1 1 6.5-6.5 6.508 6.508 0 0 1-6.5 6.5zm0-11a4.5 4.5 0 1 0 4.5 4.5 4.5 4.5 0 0 0-4.5-4.5z" opacity="1" data-original="#ffb600" class=""/>
  </g>
</svg>
