<svg height="512" viewBox="0 0 128 128" width="512" xmlns="http://www.w3.org/2000/svg"><g id="Flat"><g id="Color"><path d="m118 7a1.5 1.5 0 0 0 -1.5 1.5v35a1.5 1.5 0 0 0 3 0v-35a1.5 1.5 0 0 0 -1.5-1.5z" fill="#263238"/><path d="m8.5 8.5v35a1.5 1.5 0 0 0 3 0v-35a1.5 1.5 0 0 0 -3 0z" fill="#263238"/><circle cx="118" cy="10" fill="#37474f" r="8.5"/><path d="m64 8c-34.582 0-62.5 26.173-62.5 60.512v22.843a18.145 18.145 0 0 0 18.145 18.145h27.867a1.78 1.78 0 0 1 1.773 1.52 15.045 15.045 0 0 1 -1.8 8.75 4.3 4.3 0 0 0 5.245 5.96c7.835-2.706 17.533-7.473 23.393-15.478a1.8 1.8 0 0 1 1.452-.752h30.78a18.145 18.145 0 0 0 18.145-18.145v-22.843c.005-34.339-27.918-60.512-62.5-60.512z" fill="#cfd8dc"/><path d="m23.5 96.5a9 9 0 0 1 -9-9v-19.5c-.448-26.772 23.054-47.435 49.5-47.5 26.527-.066 49.957 20.638 49.5 47.5v19.5a9 9 0 0 1 -9 9z" fill="#37474f"/><circle cx="10" cy="10" fill="#37474f" r="8.5"/><circle cx="39" cy="54" fill="#03a9f4" r="7.5"/><circle cx="89" cy="54" fill="#03a9f4" r="7.5"/><path d="m50.2 68.5a3 3 0 0 0 -2.94 3.6 17.124 17.124 0 0 0 33.48 0 3 3 0 0 0 -2.94-3.6z" fill="#fff"/><path d="m76.57 80.12a17.114 17.114 0 0 1 -25.14 0 17.556 17.556 0 0 1 25.14 0z" fill="#03a9f4"/></g></g></svg>