<svg id="Capa_1" enable-background="new 0 0 512 512" height="512" viewBox="0 0 512 512" width="512" xmlns="http://www.w3.org/2000/svg"><g><path d="m512 256c0 141.38-114.62 256-256 256-70.69 0-134.69-28.66-181.02-74.98-46.32-46.33-74.98-110.33-74.98-181.02 0-141.38 114.62-256 256-256 70.69 0 134.69 28.66 181.02 74.98 46.32 46.33 74.98 110.33 74.98 181.02z" fill="#665e66"/><path d="m512 256c0 27.52-4.35 54.04-12.38 78.88-5.53 17.07-12.8 33.36-21.6 48.64-25.03 43.49-62.46 78.92-107.47 101.48-14 7.02-28.73 12.79-44.05 17.17-22.39 6.4-46.05 9.83-70.5 9.83-20.06 0-39.58-2.31-58.31-6.67-22.95-5.35-44.71-13.78-64.82-24.84-21.34-11.72-40.82-26.4-57.89-43.47l362.04-362.04c46.32 46.33 74.98 110.33 74.98 181.02z" fill="#b1e4f9"/><path d="m499.62 334.88c-5.53 17.07-12.8 33.36-21.6 48.64-25.03 43.49-62.46 78.92-107.47 101.48-14 7.02-28.73 12.79-44.05 17.17l-5.82-21.88-55.93 15.04 15.04-55.93-55.96-14.9 41.04-40.88-41.04-40.89 55.96-14.9-15.04-55.92 55.93 15.03 14.9-55.96 40.88 41.04 40.89-41.04 14.9 55.96 55.93-15.03-15.04 55.92z" fill="#f6e7c6"/><path d="m478.02 383.52c-25.03 43.49-62.46 78.92-107.47 101.48-53.33-3.06-95.64-47.28-95.64-101.38 0-56.09 45.47-101.56 101.55-101.56 56.06 0 101.51 45.42 101.56 101.46z" fill="#f4dd45"/><path d="m377.27 481.5c-2.22 1.2-4.46 2.37-6.72 3.5-53.33-3.06-95.64-47.28-95.64-101.38 0-56.09 45.47-101.56 101.55-101.56 4.74 0 9.4.32 13.97.96-49.48 6.8-87.59 49.25-87.59 100.6 0 46.69 31.51 86.02 74.43 97.88z" fill="#fbb031"/><path d="m183.951 242.987c10.825 2.775 11.082 18.128.344 21.224-11.001 3.172-22.626 4.872-34.645 4.872-68.33 0-123.841-54.917-124.788-123.031-.956-68.834 55.847-126.514 124.689-126.568 12.031-.009 23.665 1.685 34.676 4.854 10.779 3.103 10.6 18.461-.266 21.246-17.096 4.382-33.276 13.265-46.659 26.648-39.797 39.797-39.797 104.316 0 144.113 13.379 13.379 29.557 22.261 46.649 26.642z" fill="#f4dd45"/><path d="m169.032 267.583c-6.32.99-12.79 1.5-19.38 1.5-68.33 0-123.84-54.91-124.79-123.03-.95-68.83 55.85-126.51 124.69-126.57 6.67 0 13.21.52 19.6 1.53-59.88 9.56-106.36 62.73-105.49 125.04.86 61.53 46.24 112.29 105.37 121.53z" fill="#fbb031"/><path d="m286.397 77.778 23.84-5.222c7.379-1.616 7.379-12.139 0-13.755l-23.84-5.222c-2.685-.588-4.783-2.686-5.371-5.371l-5.222-23.84c-1.616-7.379-12.139-7.379-13.755 0l-5.222 23.84c-.588 2.685-2.686 4.783-5.371 5.371l-23.84 5.222c-7.379 1.616-7.379 12.139 0 13.755l23.84 5.222c2.685.588 4.783 2.686 5.371 5.371l5.222 23.84c1.616 7.379 12.139 7.379 13.755 0l5.222-23.84c.588-2.686 2.686-4.783 5.371-5.371z" fill="#f4dd45"/><path d="m78.397 321.767 18.982-4.158c5.875-1.287 5.875-9.666 0-10.953l-18.982-4.158c-2.138-.468-3.808-2.138-4.277-4.277l-4.158-18.982c-1.287-5.875-9.666-5.875-10.953 0l-4.158 18.982c-.468 2.138-2.138 3.808-4.277 4.277l-18.982 4.158c-5.875 1.287-5.875 9.666 0 10.953l18.982 4.158c2.138.468 3.808 2.138 4.277 4.277l4.158 18.982c1.287 5.875 9.666 5.875 10.953 0l4.158-18.982c.469-2.139 2.139-3.809 4.277-4.277z" fill="#f4dd45"/><path d="m248.39 217.06 18.982-4.158c5.875-1.287 5.875-9.666 0-10.953l-18.982-4.158c-2.138-.468-3.808-2.138-4.277-4.277l-4.158-18.982c-1.287-5.875-9.666-5.875-10.953 0l-4.158 18.982c-.468 2.138-2.138 3.808-4.277 4.277l-18.982 4.158c-5.875 1.287-5.875 9.666 0 10.953l18.982 4.158c2.138.468 3.808 2.138 4.277 4.277l4.158 18.982c1.287 5.875 9.666 5.875 10.953 0l4.158-18.982c.469-2.139 2.139-3.809 4.277-4.277z" fill="#f4dd45"/><g fill="#fff"><path d="m444.303 172.121h-61.853c-8.265 0-14.964 6.7-14.964 14.964 0 8.265 6.7 14.964 14.964 14.964h61.853c8.265 0 14.964-6.7 14.964-14.964.001-8.265-6.699-14.964-14.964-14.964z"/><path d="m238.793 445.469h-61.853c-8.265 0-14.964 6.7-14.964 14.964 0 8.265 6.7 14.964 14.964 14.964h61.853c8.265 0 14.964-6.7 14.964-14.964 0-8.264-6.699-14.964-14.964-14.964z"/><path d="m220.93 490.36c0 8.27-6.7 14.97-14.96 14.97h-8.28c-22.95-5.35-44.71-13.78-64.82-24.84 2.74-3.12 6.76-5.09 11.24-5.09h61.86c4.13 0 7.87 1.68 10.58 4.38 2.71 2.71 4.38 6.45 4.38 10.58z"/><path d="m489.196 142.192h-61.853c-8.265 0-14.964 6.7-14.964 14.964 0 8.265 6.7 14.964 14.964 14.964h61.853c8.265 0 14.964-6.7 14.964-14.964.001-8.264-6.699-14.964-14.964-14.964z"/></g></g></svg>