<svg fill="none" height="128" viewBox="0 0 128 128" width="128" xmlns="http://www.w3.org/2000/svg" xmlns:xlink="http://www.w3.org/1999/xlink"><linearGradient id="paint0_linear_404_2495" gradientUnits="userSpaceOnUse" x1="8" x2="121.53" y1="8.469" y2="122.468"><stop offset="0" stop-color="#ff007a"/><stop offset="1" stop-color="#0085ff"/></linearGradient><g fill="url(#paint0_linear_404_2495)"><path clip-rule="evenodd" d="m90 30c0-4.4183 3.5817-8 8-8 4.418 0 8 3.5817 8 8s-3.582 8-8 8c-4.4183 0-8-3.5817-8-8zm8-4c-2.2091 0-4 1.7909-4 4s1.7909 4 4 4c2.209 0 4-1.7909 4-4s-1.791-4-4-4z" fill-rule="evenodd"/><path clip-rule="evenodd" d="m98 8c-13.3078 0-24 11.0817-24 24.6316 0 3.5718 1.2364 7.1721 3.0117 10.6209 1.7813 3.4605 4.1807 6.9108 6.6647 10.2047 1.2454 1.6513 2.5245 3.2794 3.7681 4.858l.2737.3474c1.1511 1.4609 2.2659 2.8757 3.3098 4.2483 2.2726 2.988 4.1037 5.6418 5.1553 7.9256.3266.7092 1.036 1.1635 1.8167 1.1635s1.4901-.4543 1.8167-1.1635c1.0513-2.2838 2.8823-4.9376 5.1553-7.9256 1.044-1.3726 2.159-2.7874 3.31-4.2483l.274-.3474c1.243-1.5786 2.522-3.2067 3.768-4.858 2.484-3.2939 4.883-6.7442 6.664-10.2047 1.776-3.4488 3.012-7.0491 3.012-10.6209 0-13.5499-10.692-24.6316-24-24.6316zm-20 24.6316c0-11.4483 9.0073-20.6316 20-20.6316 10.993 0 20 9.1833 20 20.6316 0 2.6777-.938 5.6232-2.568 8.7902-1.624 3.1554-3.862 6.391-6.302 9.6269-1.217 1.6136-2.472 3.2113-3.717 4.7912l-.278.3534c-1.146 1.4541-2.281 2.8952-3.347 4.2961-1.387 1.8233-2.6945 3.6289-3.788 5.374-1.0935-1.7451-2.4014-3.5507-3.7882-5.374-1.0653-1.4007-2.2004-2.8412-3.346-4.2952l-.2792-.3543c-1.2446-1.5799-2.4996-3.1776-3.7165-4.7912-2.4404-3.2359-4.6776-6.4715-6.3019-9.6269-1.6302-3.167-2.5682-6.1125-2.5682-8.7902z" fill-rule="evenodd"/><path d="m34.823 40.2756c-2.4481-2.5405-.6477-6.7756 2.8803-6.7756h32.2952c1.1046 0 2 .8954 2 2s-.8954 2-2 2h-32.2952l46.2986 48.0458c2.4967 2.5909.5701 6.9036-3.0256 6.7729l-22.5504-.82c-1.1039-.0402-1.9662-.9675-1.926-2.0714.0401-1.1038.9675-1.9661 2.0713-1.926l22.5504.82z"/><path d="m61.9995 52.1702c-2.3094-2.5758-.4812-6.6702 2.9783-6.6702h8.5207c1.1046 0 2 .8954 2 2s-.8954 2-2 2h-8.5207l46.0202 51.33c2.309 2.576.481 6.67-2.979 6.67h-58.0205c-1.1045 0-2-.895-2-2s.8955-2 2-2h58.0205z"/><g clip-rule="evenodd" fill-rule="evenodd"><path d="m32 72c-4.4183 0-8 3.5817-8 8s3.5817 8 8 8 8-3.5817 8-8-3.5817-8-8-8zm-4 8c0-2.2091 1.7909-4 4-4s4 1.7909 4 4-1.7909 4-4 4-4-1.7909-4-4z"/><path d="m8 82.6316c0-13.5499 10.6922-24.6316 24-24.6316s24 11.0817 24 24.6316c0 3.5718-1.2364 7.1721-3.0117 10.6209-1.7813 3.4605-4.1807 6.9105-6.6647 10.2045-1.2454 1.651-2.5245 3.28-3.7681 4.858l-.2737.348h-.0006c-1.1508 1.461-2.2655 2.876-3.3092 4.248-2.2726 2.988-4.1037 5.642-5.1553 7.926-.3266.709-1.036 1.163-1.8167 1.163s-1.4901-.454-1.8167-1.163c-1.0516-2.284-2.8827-4.938-5.1553-7.926-1.0439-1.373-2.1587-2.788-3.3098-4.248l-.2737-.348c-1.2436-1.578-2.5227-3.207-3.7681-4.858-2.484-3.294-4.8834-6.744-6.6647-10.2045-1.77526-3.4488-3.0117-7.0491-3.0117-10.6209zm24-20.6316c-10.9927 0-20 9.1833-20 20.6316 0 2.6777.938 5.6232 2.5682 8.7902 1.6242 3.1554 3.8615 6.391 6.3019 9.6272 1.2168 1.613 2.4719 3.211 3.7165 4.791l.2783.353c1.1459 1.454 2.2813 2.895 3.3469 4.296 1.3868 1.824 2.6947 3.629 3.7882 5.374 1.0935-1.745 2.4014-3.55 3.7882-5.374 1.0656-1.401 2.2009-2.841 3.3468-4.296l.2784-.353c1.2446-1.58 2.4997-3.178 3.7165-4.791 2.4404-3.2362 4.6777-6.4718 6.3019-9.6272 1.6302-3.167 2.5682-6.1125 2.5682-8.7902 0-11.4483-9.0073-20.6316-20-20.6316z"/></g></g></svg>