<?xml version="1.0" encoding="UTF-8"?>
<svg xmlns="http://www.w3.org/2000/svg" xmlns:xlink="http://www.w3.org/1999/xlink" version="1.1" width="512" height="512" x="0" y="0" viewBox="0 0 64 64" style="enable-background:new 0 0 512 512" xml:space="preserve">
  <g>
    <linearGradient id="a" x1="12.28" x2="51.72" y1="31.998" y2="31.998" gradientUnits="userSpaceOnUse">
      <stop stop-opacity="1" stop-color="#ff6d00" offset="0"/>
      <stop stop-opacity="1" stop-color="#0c3990" offset="1"/>
    </linearGradient>
    <path fill="url(#a)" d="M51.72 52.65C51.72 57.424 41.56 60 32 60s-19.72-2.576-19.72-7.35c0-2.52 2.87-4.654 8.078-6.007a1 1 0 1 1 .504 1.935c-4.858 1.263-6.582 2.983-6.582 4.072C14.28 54.884 21.021 58 32 58s17.72-3.116 17.72-5.35c0-1.095-1.724-2.82-6.58-4.07a1 1 0 1 1 .5-1.938c5.21 1.343 8.08 3.477 8.08 6.008zM16.56 35.98a19.666 19.666 0 0 1-4.18-14.23c.83-8.6 8.78-16.67 17.36-17.63a19.741 19.741 0 0 1 21.98 19.6 19.822 19.822 0 0 1-4.38 12.39c-1.72 2.12-12.63 18.9-12.73 19.07a3.111 3.111 0 0 1-5.21 0c-.1-.17-10.78-16.61-12.84-19.2zm2.12-12.26A13.32 13.32 0 1 0 32 10.4a13.335 13.335 0 0 0-13.32 13.32zm4.77-1.036a2.821 2.821 0 0 1-2.777-3.314 2.918 2.918 0 0 1 2.892-2.336h.145v-.464a3.009 3.009 0 0 1 3-3h10.58a3.002 3.002 0 0 1 3 3v.464h.145a2.918 2.918 0 0 1 2.892 2.337 2.821 2.821 0 0 1-2.777 3.313h-.26v1.823l.003.014-.003.015v4.594a1.994 1.994 0 0 1-1.53 1.94v.1a2.7 2.7 0 1 1-5.4 0v-.04h-2.77v.04a2.695 2.695 0 1 1-5.39 0v-.11a2.004 2.004 0 0 1-1.49-1.93v-6.446zm16.84-2h.26a.82.82 0 0 0 .806-.972.914.914 0 0 0-.921-.678h-.145zm-14.58-3.65h12.58v-.464a1.003 1.003 0 0 0-1-1H26.71a1.003 1.003 0 0 0-1 1zm0 6.487h12.58v-4.487H25.71zm0 5.609h12.58v-3.609H25.71zm-2.888-8.738a.822.822 0 0 0 .628.292h.26v-1.65h-.145a.914.914 0 0 0-.921.677.821.821 0 0 0 .178.68zm5.098 8.038a1.25 1.25 0 1 0-1.25-1.25 1.25 1.25 0 0 0 1.25 1.25zm8.16 0a1.25 1.25 0 1 0-1.25-1.25 1.25 1.25 0 0 0 1.25 1.25z" opacity="1" data-original="url(#a)"/>
  </g>
</svg>
