<svg id="Layer_1" viewBox="0 0 100 100" xmlns="http://www.w3.org/2000/svg" xmlns:xlink="http://www.w3.org/1999/xlink" data-name="Layer 1"><linearGradient id="linear-gradient" gradientUnits="userSpaceOnUse" x1="15.75" x2="84.25" y1="89.22" y2="20.72"><stop offset="0" stop-color="#1bc3e1"/><stop offset="1" stop-color="#e90ffd"/></linearGradient><path d="m50 .5a33.66 33.66 0 0 0 -33.75 33.5c0 19.65 12 37 21.51 47.63-10.82 1.23-19.44 4.14-19.44 8.61 0 6.08 15.93 9.26 31.68 9.26s31.68-3.18 31.68-9.26c0-4.5-8.75-7.42-19.68-8.63 9.52-10.82 21.75-28.45 21.75-47.61a33.66 33.66 0 0 0 -33.75-33.5zm18.49 33.5a18.49 18.49 0 1 1 -18.49-18.33 18.44 18.44 0 0 1 18.49 18.33zm-4.83-16.45a22.15 22.15 0 0 1 2.92 2.89 22.15 22.15 0 0 0 -2.92-2.89zm2.92 30a22.15 22.15 0 0 1 -2.92 2.89 22.15 22.15 0 0 0 2.92-2.86zm-10.2-33.92a21.56 21.56 0 0 1 3.86 1.62 21.56 21.56 0 0 0 -3.86-1.62 21.32 21.32 0 0 0 -4.19-.85 21.32 21.32 0 0 1 4.19.85zm0 40.76a21.56 21.56 0 0 0 3.86-1.62 21.56 21.56 0 0 1 -3.86 1.62 21.32 21.32 0 0 1 -4.19.85 21.32 21.32 0 0 0 4.19-.85zm-19.7-47.88a30.36 30.36 0 0 1 5.64-2 30.36 30.36 0 0 0 -5.64 2.05q-1.35.65-2.61 1.41 1.26-.81 2.61-1.46zm-10.4 8.1a28.87 28.87 0 0 0 -1.77 2.39 28.87 28.87 0 0 1 1.77-2.39zm-3.28 4.86c-.48.87-.91 1.76-1.3 2.67.36-.91.79-1.8 1.3-2.67zm55.68 70.77c0 2.13-10.12 6.26-28.68 6.26s-28.68-4.13-28.68-6.26c0-1.71 6.62-4.76 19-5.85a100.21 100.21 0 0 0 8.76 8.26 1.51 1.51 0 0 0 1.91 0 106.55 106.55 0 0 0 8.53-8.26c12.48 1.06 19.16 4.13 19.16 5.85zm-23.15-6.14c-2.45 2.55-4.44 4.4-5.55 5.4-1.13-1-3.18-2.83-5.71-5.39-.84-.86-1.75-1.81-2.69-2.83-9.34-10.13-22.33-27.73-22.33-47.28 0 19.54 13 37.15 22.34 47.28.94 1 1.85 2 2.69 2.83 2.52 2.56 4.57 4.4 5.7 5.38 1.1-1 3.09-2.84 5.55-5.39.83-.87 1.73-1.82 2.65-2.84-.92 1.02-1.81 1.97-2.65 2.84zm-18-56.3v9.62a5.62 5.62 0 0 0 5 5.7v1.33a1.5 1.5 0 0 0 3 0v-1.3h9v1.3a1.5 1.5 0 0 0 3 0v-1.33a5.62 5.62 0 0 0 5-5.7v-9.62a5.61 5.61 0 0 0 -5.53-5.73h-14a5.61 5.61 0 0 0 -5.5 5.73zm19.47 12.35h-14a2.61 2.61 0 0 1 -2.46-2.73v-9.62a2.61 2.61 0 0 1 2.46-2.73h8.82v6.77a4.2 4.2 0 0 0 4.11 4.29h3.57v1.29a2.61 2.61 0 0 1 -2.5 2.73zm0-15.08a2.61 2.61 0 0 1 2.5 2.73v5.33h-3.61a1.21 1.21 0 0 1 -1.11-1.29v-6.77zm-11.21 6.48v2.31a1.5 1.5 0 0 1 -3 0v-2.31a1.5 1.5 0 0 1 3 0zm4.41 0v2.31a1.5 1.5 0 0 1 -3 0v-2.31a1.5 1.5 0 1 1 3 0z" fill="url(#linear-gradient)"/></svg>