<?xml version="1.0" encoding="UTF-8"?>
<svg xmlns="http://www.w3.org/2000/svg" xmlns:xlink="http://www.w3.org/1999/xlink" version="1.1" width="512" height="512" x="0" y="0" viewBox="0 0 64 64" style="enable-background:new 0 0 512 512" xml:space="preserve">
  <g>
    <linearGradient id="a" x1="12.28" x2="51.72" y1="31.999" y2="31.999" gradientUnits="userSpaceOnUse">
      <stop stop-opacity="1" stop-color="#ff9b00" offset="0"/>
      <stop stop-opacity="1" stop-color="#2073ff" offset="1"/>
    </linearGradient>
    <path fill="url(#a)" d="M32 39.04a15.32 15.32 0 1 0-15.32-15.32A15.334 15.334 0 0 0 32 39.04zm0-28.64a13.32 13.32 0 1 1-13.32 13.32A13.328 13.328 0 0 1 32 10.4zm-2.6 44.78a3.111 3.111 0 0 0 5.21 0c.1-.17 11.01-16.95 12.73-19.07a19.712 19.712 0 0 0-2.2-27.09 19.601 19.601 0 0 0-15.4-4.9c-8.58.96-16.53 9.03-17.36 17.63a19.666 19.666 0 0 0 4.18 14.23c2.06 2.59 12.74 19.03 12.84 19.2zM14.37 21.94c.74-7.59 8.02-14.98 15.59-15.83A20.46 20.46 0 0 1 32.02 6a17.498 17.498 0 0 1 11.79 4.51 17.724 17.724 0 0 1 5.91 13.21 17.478 17.478 0 0 1-3.94 11.13c-1.78 2.2-12.4 18.54-12.85 19.24a1.131 1.131 0 0 1-1.85 0c-.44-.68-10.83-16.69-12.95-19.35a17.688 17.688 0 0 1-3.76-12.8zm9.34.744v6.446a2.004 2.004 0 0 0 1.49 1.93v.11a2.695 2.695 0 1 0 5.39 0v-.04h2.77v.04a2.7 2.7 0 1 0 5.4 0v-.1a1.994 1.994 0 0 0 1.53-1.94v-4.594l.003-.015-.003-.014v-1.823h.26a2.821 2.821 0 0 0 2.777-3.313 2.918 2.918 0 0 0-2.892-2.337h-.145v-.464a3.002 3.002 0 0 0-3-3H26.71a3.009 3.009 0 0 0-3 3v.464h-.145a2.918 2.918 0 0 0-2.892 2.336 2.821 2.821 0 0 0 2.777 3.314zm16.58-3.65h.145a.914.914 0 0 1 .921.678.82.82 0 0 1-.806.972h-.26zM25.71 16.57a1.003 1.003 0 0 1 1-1h10.58a1.003 1.003 0 0 1 1 1v.464H25.71zm0 2.464h12.58v4.487H25.71zm0 6.487h12.58v3.609H25.71zm-3.066-5.81a.914.914 0 0 1 .921-.677h.145v1.65h-.26a.82.82 0 0 1-.806-.973zm4.026 7.469a1.25 1.25 0 1 1 1.25 1.25 1.25 1.25 0 0 1-1.25-1.25zm8.16 0a1.25 1.25 0 1 1 1.25 1.25 1.25 1.25 0 0 1-1.25-1.25zm16.89 25.47c0 4.775-10.16 7.351-19.72 7.351s-19.72-2.576-19.72-7.35c0-2.52 2.87-4.653 8.078-6.008a1 1 0 1 1 .504 1.935c-4.858 1.264-6.582 2.984-6.582 4.072 0 2.235 6.742 5.351 17.72 5.351s17.72-3.116 17.72-5.35c0-1.096-1.724-2.82-6.58-4.072a1 1 0 1 1 .5-1.937c5.21 1.344 8.08 3.478 8.08 6.008z" opacity="1" data-original="url(#a)"/>
  </g>
</svg>
