<?xml version="1.0" encoding="UTF-8"?>
<svg xmlns="http://www.w3.org/2000/svg" xmlns:xlink="http://www.w3.org/1999/xlink" version="1.1" width="512" height="512" x="0" y="0" viewBox="0 0 64 64" style="enable-background:new 0 0 512 512" xml:space="preserve" fill-rule="evenodd" class="">
  <g>
    <linearGradient id="a" x1="0" x2="1" y1="0" y2="0" gradientTransform="matrix(0 -64.5 64.522 0 1960.01 72.5)" gradientUnits="userSpaceOnUse">
      <stop stop-opacity="1" stop-color="#797979" offset="0"/>
      <stop stop-opacity="1" stop-color="#dcdcdc" offset="0.5"/>
      <stop stop-opacity="1" stop-color="#cbcbcb" offset="1"/>
    </linearGradient>
    <path fill="url(#a)" d="M1958 15.466a4 4 0 1 1 4-.003l.01 2.549a165.436 165.436 0 0 1 9.19.37c8.19.578 14.69 6.902 15.67 14.867 1.16.318 2.24.934 3.1 1.801 1.32 1.313 2.05 3.093 2.05 4.95s-.73 3.637-2.05 4.95a6.997 6.997 0 0 1-3.12 1.806c-.73 5.988-4.59 11.048-9.94 13.433.56.393 1.09.836 1.58 1.325A12 12 0 0 1 1982 70c0 1.105-.89 2-2 2h-40c-1.11 0-2-.895-2-2a12 12 0 0 1 3.51-8.486 12.53 12.53 0 0 1 1.56-1.31c-5.36-2.392-9.22-7.462-9.95-13.46a6.995 6.995 0 0 1-3.07-1.794c-1.31-1.313-2.05-3.093-2.05-4.95s.74-3.637 2.05-4.95a7.04 7.04 0 0 1 3.1-1.8c.97-7.955 7.47-14.27 15.65-14.848 3.02-.22 6.06-.351 9.21-.39zM1977.75 68h-35.5a8.045 8.045 0 0 1 2.09-3.657A8.01 8.01 0 0 1 1950 62h20c2.12 0 4.16.843 5.66 2.343a8.045 8.045 0 0 1 2.09 3.657zm-6.05-45.549-1 4.004a6.004 6.004 0 0 1-5.82 4.545h-9.76a6.004 6.004 0 0 1-5.82-4.545l-.99-3.985c-6.42.84-11.29 6.32-11.29 12.871v.012c-.02 3.045-.02 6.28-.02 9.324 0 6.829 5.28 12.494 12.1 12.969 3.55.232 7.13.355 10.9.354s7.35-.124 10.9-.376c6.8-.474 12.08-6.13 12.08-12.949v-.013c.02-3.043.02-6.278.02-9.322 0-6.561-4.88-12.048-11.3-12.889zM1958 52h4c1.1 0 2-.896 2-2s-.9-2-2-2h-4c-1.1 0-2 .896-2 2s.9 2 2 2zm-9-14v4c0 1.104.9 2 2 2s2-.896 2-2v-4c0-1.104-.9-2-2-2s-2 .896-2 2zm18 0v4c0 1.104.9 2 2 2s2-.896 2-2v-4c0-1.104-.9-2-2-2s-2 .896-2 2zm20-.256c0 1.499 0 3.019-.01 4.519.05-.046.11-.093.15-.142.57-.562.88-1.325.88-2.121s-.31-1.559-.88-2.121a1.285 1.285 0 0 0-.14-.135zm-53.99.013A3.01 3.01 0 0 0 1932 40a3.01 3.01 0 0 0 1 2.236c0-1.486 0-2.992.01-4.479zm34.63-15.574c-2.49-.12-5.02-.183-7.64-.183s-5.15.064-7.64.19l.82 3.295c.22.89 1.02 1.515 1.94 1.515h9.76c.92 0 1.72-.625 1.94-1.515z" transform="translate(-1928 -8)" opacity="1" data-original="url(#a)" class=""/>
  </g>
</svg>
