<?xml version="1.0" encoding="UTF-8"?>
<svg xmlns="http://www.w3.org/2000/svg" xmlns:xlink="http://www.w3.org/1999/xlink" version="1.1" width="512" height="512" x="0" y="0" viewBox="0 0 500 500" style="enable-background:new 0 0 512 512" xml:space="preserve">
  <g>
    <linearGradient id="a" x1="150.126" x2="426.055" y1="402.828" y2="126.899" gradientUnits="userSpaceOnUse">
      <stop stop-opacity="1" stop-color="#c0c0c0" offset="0"/>
      <stop stop-opacity="1" stop-color="#979797" offset="0.144"/>
      <stop stop-opacity="1" stop-color="#c2c2c2" offset="0.38"/>
      <stop stop-opacity="1" stop-color="#afafaf" offset="0.676"/>
      <stop stop-opacity="1" stop-color="#e4e4e5" offset="1"/>
    </linearGradient>
    <path fill="url(#a)" fill-rule="evenodd" d="M457.311 198.861h-20.117c-3.155-15.766-17.074-27.695-33.753-27.695s-30.597 11.929-33.696 27.695h-39.951c-.845-5.116-1.691-9.906-2.536-14.205-2.705-14.363-16.003-25.193-30.992-25.193h-109.26c-2.93 0-5.748.321-8.452.947 2.029-15.907 4.62-32.547 7.325-47.063 1.521-8.142 9.185-14.279 17.862-14.279h109.26c7.382 0 13.636 3.088 18.144 8.92l22.201 28.715c5.128 6.559 11.833 10.413 20.116 11.444 12.41 1.559 23.683 3.577 35.838 5.46 13.298 2.04 27.047 4.153 36.232 11.923 11.723 9.912 11.948 18.849 11.779 33.331zm-53.869 27.69c11.608 0 21.018-9.416 21.018-21.001s-9.41-21.007-21.018-21.007c-11.551 0-21.018 9.421-21.018 21.007 0 11.585 9.466 21.001 21.018 21.001zm-62.66 80.302 76.296 21.897c16.848 4.846 18.144 20.083 18.144 44.499h-44.346c-3.099-15.772-17.017-27.695-33.697-27.695-16.679 0-30.597 11.923-33.753 27.695h-68.689c-3.156-15.772-17.074-27.695-33.753-27.695s-30.597 11.923-33.696 27.695h-39.05c-.056-.749-.056-1.487-.056-2.226-.225-15.118-.507-30.749 5.579-42.853 1.972-3.939 4.395-5.269 13.355-9.726 13.587-6.777 22.044-11.281 24.737-15.428 10.552-16.251 17.831-28.027 24.962-32.068 6.367-3.606 15.778-3.601 34.542-3.589 58.156.077 49.196-2.895 86.326 37.567a6.79 6.79 0 0 0 3.099 1.927zm16.397 94.085c11.552 0 21.018-9.427 21.018-21.001 0-11.585-9.467-21.013-21.018-21.013-11.608 0-21.018 9.427-21.018 21.013 0 11.574 9.411 21.001 21.018 21.001zm-136.194 0c11.608 0 21.018-9.427 21.018-21.001 0-11.585-9.41-21.013-21.018-21.013s-21.018 9.427-21.018 21.013c0 11.574 9.41 21.001 21.018 21.001zm-90.721-128.306h66.04c13.524-17.744 21.92-18.651 53.531-18.651h10.255c38.824-.124 47.784.462 65.026 17.592-1.803-28.687-6.931-62.688-10.988-84.455-1.521-8.142-9.185-14.279-17.863-14.279h-109.26c-7.382 0-13.693 3.088-18.201 8.92l-22.201 28.715c-5.071 6.559-11.833 10.413-20.06 11.444a587.78 587.78 0 0 0-27.836 4.176c-15.154 2.63-33.105 3.821-44.234 13.208-11.777 9.912-11.946 18.849-11.777 33.33h20.117c3.099-15.772 17.074-27.695 33.697-27.695 16.68 0 30.654 11.924 33.754 27.695zm-33.753 27.69c-11.552 0-20.962-9.427-20.962-21.001 0-11.58 9.41-21.007 20.962-21.007 11.608 0 21.018 9.427 21.018 21.007 0 11.574-9.41 21.001-21.018 21.001zm357.644-145.013c-14.135-11.955-33.69-13.232-50.545-16.166a611.213 611.213 0 0 0-28.512-4.266c-4.62-.586-8.283-2.665-11.157-6.362L341.74 99.8c-7.044-9.095-17.243-14.11-28.738-14.11h-109.26c-14.988 0-28.343 10.83-30.992 25.194-3.268 17.434-6.367 37.861-8.509 56.529-2.198 1.769-4.17 3.831-5.973 6.159l-22.201 28.715c-2.874 3.702-6.536 5.776-11.157 6.367a591.166 591.166 0 0 0-28.512 4.26c-16.911 2.972-36.323 4.147-50.545 16.167-18.784 15.875-16.454 31.539-16.454 50.24 0 3.696 2.986 6.689 6.649 6.689h26.766c3.099 15.766 17.074 27.69 33.697 27.69 16.679 0 30.654-11.923 33.753-27.69h56.743l-6.198 9.444c-1.229 1.517-11.243 6.806-19.61 11.011-9.579 4.745-15.327 7.607-19.384 15.699-8.806 17.551-6.931 38.955-6.931 57.774a6.689 6.689 0 0 0 6.706 6.688h45.699c3.099 15.767 17.017 27.684 33.696 27.684s30.597-11.918 33.753-27.684h68.689c3.155 15.767 17.074 27.684 33.753 27.684s30.597-11.918 33.697-27.684h50.996a6.689 6.689 0 0 0 6.705-6.688c0-25.28 1.779-55.546-27.836-64.046l-74.436-21.373-9.41-10.408c1.308-1.173 2.095-3.279 2.029-5.083-.902-20.821-3.832-45.49-7.043-66.79h37.866c3.099 15.767 17.017 27.69 33.696 27.69s30.598-11.923 33.753-27.69h26.709a6.689 6.689 0 0 0 6.705-6.688c-.002-18.757 2.235-34.451-16.456-50.241z" clip-rule="evenodd" opacity="1" data-original="url(#a)"/>
  </g>
</svg>
