<?xml version="1.0" encoding="UTF-8"?>
<svg xmlns="http://www.w3.org/2000/svg" xmlns:xlink="http://www.w3.org/1999/xlink" version="1.1" width="512" height="512" x="0" y="0" viewBox="0 0 512 512" style="enable-background:new 0 0 512 512" xml:space="preserve">
  <g>
    <linearGradient id="a" x1="256" x2="256" y1="139.3" y2="372.8" gradientUnits="userSpaceOnUse">
      <stop stop-opacity="1" stop-color="#cbcbcb" offset="0"/>
      <stop stop-opacity="1" stop-color="#888888" offset="1"/>
    </linearGradient>
    <path fill="url(#a)" d="M67.5 282.5C52.9 282.5 41 270.6 41 256s11.9-26.5 26.5-26.5S94 241.4 94 256s-11.9 26.5-26.5 26.5zm0-43.2c-9.2 0-16.7 7.5-16.7 16.7s7.5 16.7 16.7 16.7 16.7-7.5 16.7-16.7-7.5-16.7-16.7-16.7zm310.1 43.2h-234c-14.6 0-26.5-11.9-26.5-26.5s11.9-26.5 26.5-26.5h234.1c14.6 0 26.5 11.9 26.5 26.5s-11.9 26.5-26.6 26.5zm-234-43.2c-9.2 0-16.7 7.5-16.7 16.7s7.5 16.7 16.7 16.7h234c9.3 0 16.8-7.5 16.8-16.7s-7.5-16.7-16.7-16.7zm-76.1-47.1c-14.6 0-26.5-11.9-26.5-26.5s11.9-26.4 26.5-26.4S94 151.1 94 165.7s-11.9 26.5-26.5 26.5zm0-43.2c-9.2 0-16.7 7.5-16.7 16.7s7.5 16.7 16.7 16.7 16.7-7.5 16.7-16.7S76.7 149 67.5 149zm377 43.3H143.6c-14.6 0-26.5-11.9-26.5-26.5s11.9-26.5 26.5-26.5h300.9c14.6 0 26.5 11.9 26.5 26.5s-11.9 26.5-26.5 26.5zm-300.9-43.2c-9.2 0-16.7 7.5-16.7 16.7s7.5 16.7 16.7 16.7h300.9c9.2 0 16.7-7.5 16.7-16.7s-7.5-16.7-16.7-16.7zM67.5 372.8c-14.6 0-26.5-11.9-26.5-26.5s11.9-26.5 26.5-26.5S94 331.6 94 346.3c0 14.6-11.9 26.5-26.5 26.5zm0-43.2c-9.2 0-16.7 7.5-16.7 16.7S58.3 363 67.5 363s16.7-7.5 16.7-16.7-7.5-16.7-16.7-16.7zm237.8 43.2H143.6c-14.6 0-26.5-11.9-26.5-26.5s11.9-26.5 26.5-26.5h161.7c14.6 0 26.5 11.9 26.5 26.5s-11.9 26.5-26.5 26.5zm-161.7-43.2c-9.2 0-16.7 7.5-16.7 16.7s7.5 16.7 16.7 16.7h161.6c9.3 0 16.8-7.5 16.8-16.7s-7.5-16.7-16.7-16.7z" opacity="1" data-original="url(#a)"/>
  </g>
</svg>
