<?xml version="1.0" encoding="UTF-8"?>
<svg xmlns="http://www.w3.org/2000/svg" xmlns:xlink="http://www.w3.org/1999/xlink" version="1.1" width="512" height="512" x="0" y="0" viewBox="0 0 24 24" style="enable-background:new 0 0 512 512" xml:space="preserve">
  <g>
    <linearGradient id="a" x1="4.402" x2="19.598" y1="19.598" y2="4.402" gradientUnits="userSpaceOnUse">
      <stop stop-opacity="1" stop-color="#d6d6d6" offset="0"/>
      <stop stop-opacity="1" stop-color="#9e9e9e" offset="1"/>
    </linearGradient>
    <path fill="url(#a)" d="M12 1.25A10.75 10.75 0 1 0 22.75 12 10.762 10.762 0 0 0 12 1.25zm0 20A9.25 9.25 0 1 1 21.25 12 9.26 9.26 0 0 1 12 21.25zM8.99 12a3.246 3.246 0 0 0 5.4 2.437.749.749 0 1 1 .988 1.126 4.75 4.75 0 1 1 0-7.125.75.75 0 0 1-.992 1.125A3.245 3.245 0 0 0 8.99 12z" data-name="1" opacity="1" data-original="url(#a)"/>
  </g>
</svg>
