<?xml version="1.0" encoding="UTF-8"?>
<svg xmlns="http://www.w3.org/2000/svg" xmlns:xlink="http://www.w3.org/1999/xlink" version="1.1" width="512" height="512" x="0" y="0" viewBox="0 0 480.007 480" style="enable-background:new 0 0 512 512" xml:space="preserve">
  <g>
    <linearGradient id="a">
      <stop stop-opacity="1" stop-color="#ffffff" offset="0"/>
      <stop stop-opacity="1" stop-color="#b1b1b1" offset="0.5"/>
      <stop stop-opacity="1" stop-color="#9e9e9e" offset="0.982"/>
    </linearGradient>
    <linearGradient xlink:href="#a" id="b" x1="96" x2="96" y1="606.348" y2="-57.004" gradientUnits="userSpaceOnUse"/>
    <linearGradient xlink:href="#a" id="c" x1="40" x2="40" y1="598.764" y2="-52.076" gradientUnits="userSpaceOnUse"/>
    <linearGradient xlink:href="#a" id="d" x1="96" x2="96" y1="604.14" y2="-55.212" gradientUnits="userSpaceOnUse"/>
    <linearGradient xlink:href="#a" id="e" x1="276" x2="276" y1="605.356" y2="-55.988" gradientUnits="userSpaceOnUse"/>
    <linearGradient xlink:href="#a" id="f" x1="424" x2="424" y1="605.588" y2="-55.044" gradientUnits="userSpaceOnUse"/>
    <path fill="url(#b)" d="M114.344 117.66a8 8 0 0 0 11.312-11.312l-48-48A8 8 0 0 0 66.344 69.66zm0 0" opacity="1" data-original="url(#b)"/>
    <path fill="url(#c)" d="M80 240.004a8 8 0 0 0-8-8H8a8 8 0 0 0 0 16h64a8 8 0 0 0 8-8zm0 0" opacity="1" data-original="url(#c)"/>
    <path fill="url(#d)" d="m114.344 362.348-48 48a8 8 0 1 0 11.312 11.312l48-48a8 8 0 0 0-11.312-11.312zm0 0" opacity="1" data-original="url(#d)"/>
    <path fill="url(#e)" d="M443.602 282.98a85.214 85.214 0 0 1-49.036 13.598c-52.511-.695-94.558-43.762-94-96.277.352-40.531 25.188-76.82 62.84-91.824a8 8 0 0 0-.39-15.098 154.697 154.697 0 0 0-46.16-5.375A145.6 145.6 0 0 0 248 105.402V8.004a8 8 0 0 0-16 0v80.855c-77.273 8.235-135.89 73.434-135.89 151.145 0 77.71 58.617 142.906 135.89 151.144v80.856a8 8 0 0 0 16 0v-97.399a145.959 145.959 0 0 0 207.559-82.336 7.996 7.996 0 0 0-11.957-9.29zM112 240.004c.105-68.867 51.621-126.809 120-134.977V374.98c-68.379-8.167-119.895-66.109-120-134.976zm204.855 136A129.918 129.918 0 0 1 248 356.227V123.78a129.883 129.883 0 0 1 68.855-19.777c6.168 0 12.754.121 19.297.64a116.797 116.797 0 0 0-51.586 95.633c-.554 61.348 48.653 111.575 110 112.278A109.508 109.508 0 0 0 432 306.594c-22.328 42.898-66.785 69.695-115.145 69.41zm0 0" opacity="1" data-original="url(#e)"/>
    <path fill="url(#f)" d="M479.586 170.14a7.994 7.994 0 0 0-6.402-5.367l-28.946-4.433-13.023-27.735a7.999 7.999 0 0 0-14.48 0L403.71 160.34l-28.941 4.433a7.997 7.997 0 0 0-4.524 13.485l21.211 21.746-5.016 30.75a8.004 8.004 0 0 0 3.286 7.824 8 8 0 0 0 8.472.465L424 224.746l25.8 14.258a7.91 7.91 0 0 0 3.864 1 7.993 7.993 0 0 0 6.094-2.82 7.98 7.98 0 0 0 1.8-6.47l-5.015-30.71 21.184-21.703a8.007 8.007 0 0 0 1.859-8.16zm-37.313 21.544a7.988 7.988 0 0 0-2.168 6.87l3.016 18.481-15.258-8.43a7.99 7.99 0 0 0-7.726 0l-15.258 8.43 3.016-18.48a7.988 7.988 0 0 0-2.168-6.871l-13.125-13.457 17.773-2.72a7.99 7.99 0 0 0 6.031-4.503L424 154.836l7.594 16.168a7.99 7.99 0 0 0 6.031 4.504l17.773 2.719zm0 0" opacity="1" data-original="url(#f)"/>
  </g>
</svg>
