<?xml version="1.0" encoding="UTF-8"?>
<svg xmlns="http://www.w3.org/2000/svg" xmlns:xlink="http://www.w3.org/1999/xlink" version="1.1" width="512" height="512" x="0" y="0" viewBox="0 0 144 144" style="enable-background:new 0 0 512 512" xml:space="preserve">
  <g>
    <linearGradient id="a" x1="31.02" x2="126.18" y1="31.02" y2="126.18" gradientUnits="userSpaceOnUse">
      <stop stop-opacity="1" stop-color="#dedede" offset="0"/>
      <stop stop-opacity="1" stop-color="#8f8f8f" offset="1"/>
    </linearGradient>
    <path fill="url(#a)" d="M70.5 42c0 2.48-2.02 4.5-4.5 4.5-10.75 0-19.5 8.75-19.5 19.5 0 2.48-2.02 4.5-4.5 4.5s-4.5-2.02-4.5-4.5c0-15.71 12.79-28.5 28.5-28.5 2.48 0 4.5 2.02 4.5 4.5zm55.68 84.18c-.88.88-2.03 1.32-3.18 1.32s-2.3-.44-3.18-1.32l-22.17-22.17C89.06 111.17 78.03 115.5 66 115.5c-27.29 0-49.5-22.21-49.5-49.5S38.71 16.5 66 16.5s49.5 22.21 49.5 49.5c0 12.03-4.32 23.06-11.49 31.65l22.17 22.17a4.49 4.49 0 0 1 0 6.36zM66 106.5c22.33 0 40.5-18.17 40.5-40.5S88.33 25.5 66 25.5 25.5 43.67 25.5 66s18.17 40.5 40.5 40.5z" opacity="1" data-original="url(#a)"/>
  </g>
</svg>
