<?xml version="1.0" encoding="UTF-8"?>
<svg xmlns="http://www.w3.org/2000/svg" xmlns:xlink="http://www.w3.org/1999/xlink" version="1.1" width="512" height="512" x="0" y="0" viewBox="0 0 512 512" style="enable-background:new 0 0 512 512" xml:space="preserve">
  <g>
    <linearGradient id="a" x2="512" y1="256" y2="256" gradientUnits="userSpaceOnUse">
      <stop stop-opacity="1" stop-color="#cfcfcf" offset="0"/>
      <stop stop-opacity="1" stop-color="#a9a9a9" offset="1"/>
    </linearGradient>
    <path fill="url(#a)" d="M446.622 82.386H65.378A65.453 65.453 0 0 0 0 147.764v216.472a65.453 65.453 0 0 0 65.378 65.378h381.244A65.453 65.453 0 0 0 512 364.236V147.764a65.453 65.453 0 0 0-65.378-65.378zm-97 164.921 126.534-126.534a39.871 39.871 0 0 1 10.5 26.991v216.472a39.8 39.8 0 0 1-3.582 16.521zm97-139.574a40.117 40.117 0 0 1 6.239.489L256.509 304.574l-66.218-66.218-.01-.01-.01-.01L60.035 108.1a40.074 40.074 0 0 1 5.343-.367zM29.247 381.457a39.783 39.783 0 0 1-3.9-17.221V147.764a39.88 39.88 0 0 1 10.994-27.513L163.4 247.307zm36.131 22.81a39.762 39.762 0 0 1-18.531-4.567l134.472-134.47 66.229 66.228a12.672 12.672 0 0 0 17.922 0l66.23-66.228 134.12 134.122a39.776 39.776 0 0 1-19.2 4.915z" opacity="1" data-original="url(#a)"/>
  </g>
</svg>
