<?xml version="1.0" encoding="UTF-8"?>
<svg xmlns="http://www.w3.org/2000/svg" xmlns:xlink="http://www.w3.org/1999/xlink" version="1.1" width="512" height="512" x="0" y="0" viewBox="0 0 512 512" style="enable-background:new 0 0 512 512" xml:space="preserve">
  <g>
    <linearGradient id="a" x1="0" x2="512" y1="256" y2="256" gradientUnits="userSpaceOnUse">
      <stop stop-opacity="1" stop-color="#9dd6fc" offset="0"/>
      <stop stop-opacity="1" stop-color="#e0e0e0" offset="0.006"/>
      <stop stop-opacity="1" stop-color="#919191" offset="1"/>
    </linearGradient>
    <path fill="url(#a)" d="M256 0C112.448 0 0 112.448 0 256c0 144.052 112.96 256 256 256 143.222 0 256-112.155 256-256C512 112.448 399.552 0 256 0zm0 472c-46.993 0-90.031-14.289-125.115-38.845C154.427 386.471 202.974 356 256.001 356c53.026 0 101.572 30.471 125.114 77.154C346.031 457.71 302.994 472 256 472zm156.241-65.469c-13.006-22.727-30.853-42.378-52.603-57.718C329.2 327.346 293.363 316 256.001 316c-37.363 0-73.2 11.346-103.638 32.813-21.75 15.34-39.598 34.991-52.604 57.719C62.58 367.905 40 315.078 40 256c0-121.121 94.879-216 216-216s216 94.879 216 216c0 59.077-22.58 111.904-59.759 150.531zM256 116c-55.141 0-100 44.86-100 100s44.859 100 100 100 100-44.86 100-100-44.859-100-100-100zm0 160c-33.084 0-60-26.916-60-60s26.916-60 60-60 60 26.916 60 60-26.916 60-60 60z" opacity="1" data-original="url(#a)"/>
  </g>
</svg>
