<?xml version="1.0" encoding="UTF-8"?>
<svg xmlns="http://www.w3.org/2000/svg" xmlns:xlink="http://www.w3.org/1999/xlink" version="1.1" width="512" height="512" x="0" y="0" viewBox="0 0 60 60" style="enable-background:new 0 0 512 512" xml:space="preserve" class="">
  <g>
    <linearGradient id="a" x1="2.5" x2="57.5" y1="30" y2="30" gradientUnits="userSpaceOnUse">
      <stop stop-opacity="1" stop-color="#cbcbcb" offset="0"/>
      <stop stop-opacity="1" stop-color="#9e9e9e" offset="1"/>
    </linearGradient>
    <path fill="url(#a)" d="M44.228 17.752a1.131 1.131 0 0 0 1.132 1.131 1.131 1.131 0 0 0 1.131-1.131 1.131 1.131 0 0 0-1.131-1.131 1.131 1.131 0 0 0-1.132 1.131zm9.99 3.813-1.934-.419V8.372a4.167 4.167 0 0 0-4.164-4.164h-3.349l-.34.487a27.147 27.147 0 0 1-9.356 8.531 1.84 1.84 0 0 1-.204.113c-5.17 2.818-11.71 4.334-19.993 4.73H6.664A4.167 4.167 0 0 0 2.5 22.233V34.18a4.167 4.167 0 0 0 4.164 4.163h.724v13.284a4.167 4.167 0 0 0 4.164 4.164h2.081a4.177 4.177 0 0 0 4.085-3.372l2.67-13.725c10.987 1.279 19.224 5.906 24.021 13.544l.328.531h3.383a4.167 4.167 0 0 0 4.164-4.163V35.844l1.935-.419a4.187 4.187 0 0 0 3.281-4.073v-5.725a4.175 4.175 0 0 0-3.281-4.062zM6.665 36.082a1.898 1.898 0 0 1-1.901-1.901V22.233a1.898 1.898 0 0 1 1.9-1.901h6.224v15.75zM15.5 51.99a1.912 1.912 0 0 1-1.867 1.539h-2.081a1.898 1.898 0 0 1-1.901-1.901V38.344h5.216c1.109.012 2.195.068 3.258.148zm34.521-3.383a1.9 1.9 0 0 1-1.9 1.9h-1.63V23.41a1.131 1.131 0 0 0-1.131-1.131 1.131 1.131 0 0 0-1.132 1.131v24.723c-5.284-6.484-13.25-10.455-23.41-11.654a53.536 53.536 0 0 0-5.668-.385V20.32c6.2-.316 13.294-1.21 19.72-4.424a29.655 29.655 0 0 0 4.402-2.67 29.304 29.304 0 0 0 4.956-4.582v3.45a1.131 1.131 0 0 0 1.132 1.132 1.131 1.131 0 0 0 1.131-1.131V6.47h1.63a1.9 1.9 0 0 1 1.9 1.901zm5.216-17.255a1.903 1.903 0 0 1-1.493 1.856l-1.46.317v-10.07l1.46.316a1.922 1.922 0 0 1 1.493 1.856zM45.36 18.883a1.131 1.131 0 0 0 1.131-1.131 1.131 1.131 0 0 0-1.131-1.131 1.131 1.131 0 0 0-1.132 1.131 1.131 1.131 0 0 0 1.132 1.131zm-1.132-1.131a1.131 1.131 0 0 0 1.132 1.131 1.131 1.131 0 0 0 1.131-1.131 1.131 1.131 0 0 0-1.131-1.131 1.131 1.131 0 0 0-1.132 1.131z" opacity="1" data-original="url(#a)"/>
  </g>
</svg>
