<?xml version="1.0" encoding="UTF-8"?>
<svg xmlns="http://www.w3.org/2000/svg" xmlns:xlink="http://www.w3.org/1999/xlink" version="1.1" width="512" height="512" x="0" y="0" viewBox="0 0 512 512" style="enable-background:new 0 0 512 512" xml:space="preserve">
  <g>
    <linearGradient id="a" x1="3.203" x2="419.113" y1="486" y2="70.09" gradientUnits="userSpaceOnUse">
      <stop stop-opacity="1" stop-color="#e0e0e0" offset="0"/>
      <stop stop-opacity="1" stop-color="#939393" offset="1"/>
    </linearGradient>
    <path fill="url(#a)" d="M499.767 183.801c-1.348-5.029-4.565-9.228-9.062-11.824l-23.846-13.766c-4.496-2.597-9.741-3.284-14.77-1.937-5.028 1.347-9.228 4.565-11.823 9.061l-29.51 51.114V73.469c0-15.648-12.731-28.379-28.38-28.379h-136.32l11.402-16.121c3.848-5.44 4.339-12.488 1.282-18.394C255.683 4.669 249.645 1 242.982 1h-63.648c-6.663 0-12.701 3.669-15.758 9.575s-2.566 12.954 1.282 18.395l11.402 16.121H39.939c-15.648 0-28.379 12.731-28.379 28.379v409.151C11.56 498.269 24.291 511 39.939 511h342.437c15.649 0 28.38-12.731 28.38-28.379V349.389L497.83 198.57c2.596-4.495 3.284-9.741 1.937-14.769zm-439-40.731h40.774a8 8 0 0 0 8-8V94.297h27.063c2.854 7.815 10.202 13.072 18.75 13.072h111.608c8.548 0 15.895-5.258 18.75-13.072h75.838v207.382l-40.013 69.305a8.005 8.005 0 0 0-1.043 3.327l-3.796 44.945c-.484 5.731 2.31 11.077 7.29 13.953a14.675 14.675 0 0 0 7.355 1.992c2.925 0 5.838-.89 8.374-2.655l21.834-15.191v44.437H60.767zm11.314-16 21.459-21.459v21.459zm263.292 261.168 21.867 12.624-24.365 16.952zm33.859 1.073-29.852-17.235 97.769-169.342L467 219.968zm25.524-315.842v170.693l-17.207 29.804V86.297a8 8 0 0 0-8-8h-80.165l3.718-17.207h89.274c6.826 0 12.38 5.553 12.38 12.379zM191.716 61.09a8 8 0 0 0 6.531-12.62L177.92 19.73c-.409-.579-.455-1.185-.135-1.801.319-.617.84-.929 1.548-.929h63.648c.708 0 1.229.313 1.548.929.319.617.273 1.223-.135 1.801l-20.327 28.74a8 8 0 0 0 6.531 12.62h46.134l-5.861 27.124c-.415 1.917-1.949 3.155-3.91 3.155H155.354c-1.961 0-3.496-1.238-3.91-3.155l-5.861-27.125h46.133zm203.04 421.531c0 6.826-5.554 12.379-12.38 12.379H39.939c-6.826 0-12.379-5.553-12.379-12.379V73.469c0-6.826 5.553-12.379 12.379-12.379h89.275l3.718 17.207h-31.391a8 8 0 0 0-5.657 2.343L47.11 129.414a8 8 0 0 0-2.343 5.657v334.722a8 8 0 0 0 8 8h316.782a8 8 0 0 0 8-8v-63.66a7.984 7.984 0 0 0 1.551-1.914l15.656-27.117zm89.218-292.051L475 206.112l-29.851-17.234 8.973-15.542a3.45 3.45 0 0 1 2.107-1.606 3.458 3.458 0 0 1 2.629.338l23.846 13.767a3.449 3.449 0 0 1 1.606 2.108 3.443 3.443 0 0 1-.336 2.627zM255.372 331.42a8 8 0 0 0 8-8v-8.927c0-12.787-10.402-23.189-23.189-23.189h-21.025V184.182a20.19 20.19 0 0 0 10.409-10.409h50.413a20.122 20.122 0 0 0-.419 4.082c0 4.568 1.551 8.772 4.13 12.15l-22.246 39.812h-5.41a8 8 0 0 0-8 8c0 28.456 23.151 51.607 51.607 51.607 28.457 0 51.607-23.151 51.607-51.607a8 8 0 0 0-8-8h-5.409l-22.246-39.812c2.579-3.378 4.129-7.581 4.129-12.149 0-10.797-8.571-19.606-19.263-20.041a8.21 8.21 0 0 0-.819-.042h-70.076a20.19 20.19 0 0 0-10.409-10.409v-12.961a8 8 0 0 0-16 0v12.961a20.193 20.193 0 0 0-10.41 10.41H122.67c-.277 0-.55.014-.819.042-10.692.435-19.263 9.244-19.263 20.041 0 4.568 1.55 8.771 4.129 12.149l-22.246 39.812h-5.409a8 8 0 0 0-8 8c0 28.457 23.151 51.607 51.607 51.607s51.607-23.151 51.607-51.607a8 8 0 0 0-8-8h-5.409l-22.245-39.812c2.579-3.378 4.129-7.581 4.129-12.149 0-1.398-.146-2.763-.419-4.082h50.412a20.193 20.193 0 0 0 10.41 10.41v107.121h-21.025c-12.787 0-23.189 10.403-23.189 23.189v8.927a8 8 0 0 0 8 8h88.432zm-48.297-165.648c0-2.251 1.832-4.082 4.083-4.082s4.082 1.831 4.082 4.082-1.831 4.082-4.082 4.082-4.083-1.831-4.083-4.082zm92.568 32.165c.675 0 1.342-.036 2.001-.101l17.87 31.98h-39.74l17.869-31.98c.658.065 1.325.101 2 .101zm4.083-20.083c0 2.251-1.832 4.083-4.083 4.083s-4.082-1.832-4.082-4.083 1.831-4.082 4.082-4.082 4.083 1.832 4.083 4.082zm-4.083 95.569c-16.885 0-31.062-11.812-34.701-27.607h69.402c-3.64 15.793-17.817 27.607-34.701 27.607zm-176.971 0c-16.884 0-31.061-11.813-34.701-27.607h69.402c-3.638 15.795-17.816 27.607-34.701 27.607zm-19.871-43.608 17.87-31.98c.658.065 1.326.101 2.001.101s1.342-.036 2.001-.101l17.87 31.98zm23.954-51.961c0 2.251-1.832 4.083-4.083 4.083s-4.082-1.832-4.082-4.083 1.831-4.082 4.082-4.082 4.083 1.832 4.083 4.082zm48.189 136.639c0-3.964 3.225-7.189 7.189-7.189h58.05c3.964 0 7.189 3.225 7.189 7.189v.927h-72.429v-.927zm-45.337 61.105H83.944a8 8 0 0 0-8 8v45.663a8 8 0 0 0 8 8h45.663a8 8 0 0 0 8-8v-45.663a8 8 0 0 0-8-8zm-8 45.662H91.944v-29.663h29.663zm185.564 8.465a8 8 0 0 1-8 8h-124.58a8 8 0 0 1 0-16h124.58a8 8 0 0 1 8 8zm0-46.592a8 8 0 0 1-8 8h-124.58a8 8 0 0 1 0-16h124.58a8 8 0 0 1 8 8z" opacity="1" data-original="url(#a)"/>
  </g>
</svg>
