<?xml version="1.0" encoding="UTF-8"?>
<svg xmlns="http://www.w3.org/2000/svg" xmlns:xlink="http://www.w3.org/1999/xlink" version="1.1" width="512" height="512" x="0" y="0" viewBox="0 0 4335 4335" style="enable-background:new 0 0 512 512" xml:space="preserve" fill-rule="evenodd">
  <g>
    <linearGradient id="a" x1="2167.46" x2="2167.46" y1="21.41" y2="4313.51" gradientUnits="userSpaceOnUse">
      <stop stop-opacity="1" stop-color="#ffffff" offset="0"/>
      <stop stop-opacity="1" stop-color="#b3b3b3" offset="0.49"/>
      <stop stop-opacity="1" stop-color="#888888" offset="1"/>
    </linearGradient>
    <path fill="url(#a)" d="M1653 4125c8-312-371-480-597-264 181 118 382 208 597 264zM429 2438c-31 0-258-127-301-150 42 616 358 1157 827 1503 308-322 854-77 820 361 797 156 1586-174 2046-805-273-168-441-468-441-796 0-456 325-841 766-924-172-659-665-1201-1323-1421l318 695c10 21 7 42-8 63l-511 705 138 980c8 65-75 97-110 46l-877-1145c-18-25-18-60 7-82l451-451-522-862C1223 265 809 548 526 931c80 75 359 91 531 100 233 11 363 18 381 110 17 74-57 141-286 253-374 191-370 268-370 272 3 21 88 49 176 56 300-53 526 7 610 155 145 258-231 645-927 367-75 50-126 194-212 194zm-306-293 303 162c73-72 156-220 254-179 548 229 882-18 786-187-46-81-198-145-490-95-51 4-282-22-310-155-25-117 109-240 433-406 110-56 166-92 194-113-252-31-669-4-839-139-210 323-331 707-331 1112zM388 910c4-12 12-24 23-32 309-427 768-741 1308-854 26-8 56 3 71 27l571 945c14 25 11 56-10 74l-448 448 702 916-106-772c-4-14 3-31 10-45l505-699-360-786c-19-42 17-109 90-76 777 211 1357 835 1535 1598 35 110 57 369 57 495 0 442-134 854-364 1197l-16 25c-392 568-1047 943-1789 943C972 4314-1 3340-1 2145c0-453 143-881 389-1235zm242 1331s4 0 0 0zm3543-496c-742 134-910 1122-281 1498 280-438 385-974 281-1498z" opacity="1" data-original="url(#a)"/>
  </g>
</svg>
