<?xml version="1.0" encoding="UTF-8"?>
<svg xmlns="http://www.w3.org/2000/svg" xmlns:xlink="http://www.w3.org/1999/xlink" version="1.1" width="512" height="512" x="0" y="0" viewBox="0 0 32 32" style="enable-background:new 0 0 512 512" xml:space="preserve">
  <g>
    <linearGradient id="a" x1="16" x2="16" y1="1" y2="31" gradientUnits="userSpaceOnUse">
      <stop stop-opacity="1" stop-color="#d6d6d6" offset="0"/>
      <stop stop-opacity="1" stop-color="#979797" offset="1"/>
    </linearGradient>
    <path fill="url(#a)" d="M29.24 26.65A9.816 9.816 0 0 0 31 21c0-3.18-1.51-6.12-4.05-8.01C26.43 6.29 20.83 1 14 1 6.83 1 1 6.83 1 14c0 2.67.81 5.23 2.34 7.42-1.03 2.3-2.16 4.01-2.17 4.03-.2.31-.22.7-.05 1.03.17.32.51.52.88.52.12.03 4-.01 7.31-.87 1.18.46 2.42.73 3.68.83 1.88 2.53 4.83 4.05 8 4.05 1.07 0 2.15-.18 3.21-.54 2.88.52 5.68.53 5.8.53.37 0 .71-.2.88-.53s.15-.72-.05-1.03c-.01-.01-.76-1.13-1.59-2.79zM9.38 24.07c-.09 0-.18.01-.27.04-1.79.5-3.85.72-5.3.82.47-.85 1.06-1.98 1.59-3.25.14-.33.09-.71-.13-1A10.935 10.935 0 0 1 3 14C3 7.93 7.93 3 14 3s11 4.93 11 11-4.93 11-11 11c-1.47 0-2.89-.29-4.24-.85a.995.995 0 0 0-.38-.08zm17.8 2.9c.35.75.71 1.41 1.01 1.96-1.07-.07-2.48-.21-3.87-.48-.18-.03-.37-.02-.54.04a8.015 8.015 0 0 1-8.18-1.6c5.89-.73 10.56-5.4 11.29-11.29A7.97 7.97 0 0 1 29 21c0 1.8-.59 3.5-1.71 4.92a1 1 0 0 0-.11 1.05zM14 15c-.55 0-1-.45-1-1s.45-1 1-1 1 .45 1 1-.45 1-1 1zm-3-1c0 .55-.45 1-1 1s-1-.45-1-1 .45-1 1-1 1 .45 1 1zm6 0c0-.55.45-1 1-1s1 .45 1 1-.45 1-1 1-1-.45-1-1z" opacity="1" data-original="url(#a)"/>
  </g>
</svg>
