<?xml version="1.0" encoding="UTF-8"?>
<svg xmlns="http://www.w3.org/2000/svg" xmlns:xlink="http://www.w3.org/1999/xlink" version="1.1" width="512" height="512" x="0" y="0" viewBox="0 0 64 64" style="enable-background:new 0 0 512 512" xml:space="preserve" class="">
  <g>
    <linearGradient id="a" x1="5.998" x2="58.002" y1="32" y2="32" gradientUnits="userSpaceOnUse">
      <stop stop-opacity="1" stop-color="#ededed" offset="0"/>
      <stop stop-opacity="1" stop-color="#b1b1b1" offset="1"/>
    </linearGradient>
    <path fill="url(#a)" d="M45.998 46.1a.999.999 0 0 1-.744-.332c-.46-.512-11.259-12.62-11.259-19.006a12.003 12.003 0 0 1 24.007 0c0 6.386-10.8 18.494-11.26 19.006a.999.999 0 0 1-.744.332zm0-29.341a10.014 10.014 0 0 0-10.003 10.003c0 4.32 6.643 12.922 10.003 16.823 3.361-3.902 10.004-12.504 10.004-16.823a10.014 10.014 0 0 0-10.004-10.003zm0 15.588a6.508 6.508 0 0 1-6.501-6.502c.305-8.605 12.698-8.602 13.003 0a6.51 6.51 0 0 1-6.502 6.502zm0-11.004a4.502 4.502 0 0 0 0 9.004 4.502 4.502 0 0 0 0-9.004zM14.7 57.837a.999.999 0 0 1-.744-.332c-.814-.908-7.958-8.998-7.958-13.505a8.702 8.702 0 1 1 17.404 0c0 4.507-7.143 12.597-7.957 13.505a.999.999 0 0 1-.745.332zm0-20.54A6.71 6.71 0 0 0 7.998 44c0 2.843 4.315 8.506 6.702 11.315 2.388-2.809 6.702-8.472 6.702-11.315a6.71 6.71 0 0 0-6.702-6.702zm0 10.912c-6.41-.203-6.408-9.499 0-9.702 6.412.204 6.41 9.5 0 9.702zm0-7.702a2.851 2.851 0 0 0 0 5.702 2.851 2.851 0 0 0 0-5.702zm0-13.967a.999.999 0 0 1-.744-.332c-.814-.908-7.958-8.999-7.958-13.506a8.702 8.702 0 0 1 17.404 0c0 4.507-7.143 12.598-7.957 13.506a.999.999 0 0 1-.745.332zM14.7 6a6.71 6.71 0 0 0-6.702 6.702c0 2.843 4.315 8.507 6.702 11.315 2.388-2.808 6.702-8.472 6.702-11.315A6.71 6.71 0 0 0 14.7 6zm0 10.912c-6.41-.204-6.408-9.5 0-9.702 6.412.204 6.41 9.499 0 9.702zm0-7.702a2.851 2.851 0 0 0 0 5.702 2.851 2.851 0 0 0 0-5.702zm26.96 35.057a3.373 3.373 0 0 1-1.438-1.915 5.646 5.646 0 0 0-5.661-3.764 3.618 3.618 0 0 1-3.766-2.5 5.56 5.56 0 0 0-5.657-3.76 3.608 3.608 0 0 1-3.759-2.495 5.336 5.336 0 0 0-2.184-2.842 1 1 0 0 0-1.108 1.666c2.08 1.496 1.078 3.142 3.618 4.754 2.479 1.72 3.586.159 5.796 1.5 2.084 1.499 1.077 3.142 3.622 4.758 2.49 1.722 3.594.16 5.804 1.505 2.086 1.5 1.079 3.142 3.626 4.76a1 1 0 0 0 1.107-1.667zm-22.588 15.62a2.68 2.68 0 0 1 2.045-.204 4.592 4.592 0 0 0 3.328-.395c2.484-1.217 1.735-2.969 3.687-4.099a2.674 2.674 0 0 1 2.043-.203 4.59 4.59 0 0 0 3.328-.395c2.475-1.213 1.735-2.97 3.678-4.095a2.673 2.673 0 0 1 2.04-.202 4.593 4.593 0 0 0 3.326-.394 1 1 0 0 0-.922-1.775 2.659 2.659 0 0 1-2.04.203 4.87 4.87 0 0 0-5.604 2.891 2.87 2.87 0 0 1-1.399 1.597 2.664 2.664 0 0 1-2.043.203 4.584 4.584 0 0 0-3.327.395c-2.482 1.215-1.736 2.972-3.687 4.098a2.665 2.665 0 0 1-2.043.204 4.595 4.595 0 0 0-3.33.396A1.006 1.006 0 0 0 18.614 60a.992.992 0 0 0 .46-.113z" opacity="1" data-original="url(#a)" class=""/>
  </g>
</svg>
