<?xml version="1.0" encoding="UTF-8"?>
<svg xmlns="http://www.w3.org/2000/svg" xmlns:xlink="http://www.w3.org/1999/xlink" version="1.1" width="512" height="512" x="0" y="0" viewBox="0 0 512 512" style="enable-background:new 0 0 512 512" xml:space="preserve">
  <g>
    <linearGradient id="a" x1="44.9" x2="549.641" y1="525.41" y2="20.669" data-name="New Gradient Swatch 1" gradientUnits="userSpaceOnUse">
      <stop stop-opacity="1" stop-color="#dcdcdc" offset="0"/>
      <stop stop-opacity="1" stop-color="#a2a2a2" offset="0.518"/>
      <stop stop-opacity="1" stop-color="#bababa" offset="1"/>
    </linearGradient>
    <linearGradient xlink:href="#a" id="b" x1="-60.255" x2="444.486" y1="420.255" y2="-84.486"/>
    <linearGradient xlink:href="#a" id="c" x1="83.745" x2="588.486" y1="564.255" y2="59.514"/>
    <linearGradient xlink:href="#a" id="d" x1="-92.907" x2="411.834" y1="387.603" y2="-117.138"/>
    <linearGradient xlink:href="#a" id="e" x1="11.745" x2="516.486" y1="492.255" y2="-12.486"/>
    <linearGradient xlink:href="#a" id="f" x1="125.398" x2="630.139" y1="605.908" y2="101.167"/>
    <linearGradient xlink:href="#a" id="g" x1="173.398" x2="678.139" y1="653.908" y2="149.167"/>
    <linearGradient xlink:href="#a" id="h" x1="77.398" x2="582.139" y1="557.908" y2="53.167"/>
    <path fill="url(#a)" d="M439.21 229.21a120.006 120.006 0 0 0-175.6-156.93 121.056 121.056 0 0 0-40.86 56.03 144.368 144.368 0 0 0-119.98 80.1A104 104 0 0 0 112 416h296a96 96 0 0 0 31.21-186.79zM273.27 85.04A103.021 103.021 0 0 1 336 64a104 104 0 0 1 86.88 161.16 96.13 96.13 0 0 0-52.61 6.55 144.029 144.029 0 0 0-130.35-103.48 104.941 104.941 0 0 1 33.35-43.19zM408 400H112a88 88 0 0 1-3.68-175.92 7.993 7.993 0 0 0 6.96-4.7 128.034 128.034 0 0 1 241.84 25.55 8 8 0 0 0 11.74 5.29A80 80 0 1 1 408 400z" opacity="1" data-original="url(#a)"/>
    <path fill="url(#b)" d="M336 40a8 8 0 0 0 8-8V16a8 8 0 0 0-16 0v16a8 8 0 0 0 8 8z" opacity="1" data-original="url(#b)"/>
    <path fill="url(#c)" d="M472 176h16a8 8 0 0 0 0-16h-16a8 8 0 0 0 0 16z" opacity="1" data-original="url(#c)"/>
    <path fill="url(#d)" d="M234.177 77.49a8 8 0 1 0 11.313-11.313l-16.97-16.971a8 8 0 0 0-11.314 11.314z" opacity="1" data-original="url(#d)"/>
    <path fill="url(#e)" d="M432.167 79.833a7.974 7.974 0 0 0 5.656-2.343l16.971-16.97a8 8 0 1 0-11.314-11.314l-16.97 16.971a8 8 0 0 0 5.657 13.656z" opacity="1" data-original="url(#e)"/>
    <path fill="url(#f)" d="M256 440a8 8 0 0 0-6.583 3.453C244.181 451.035 232 469.773 232 480a24 24 0 0 0 48 0c0-10.227-12.181-28.965-17.417-36.547A8 8 0 0 0 256 440zm0 48a8.009 8.009 0 0 1-8-7.994c.068-2.448 3.4-9.416 8-17.176 4.607 7.763 7.935 14.731 8 17.17a8.009 8.009 0 0 1-8 8z" opacity="1" data-original="url(#f)"/>
    <path fill="url(#g)" d="M352 440a8 8 0 0 0-6.583 3.453C340.181 451.035 328 469.773 328 480a24 24 0 0 0 48 0c0-10.227-12.181-28.965-17.417-36.547A8 8 0 0 0 352 440zm0 48a8.009 8.009 0 0 1-8-7.994c.068-2.448 3.395-9.416 8-17.176 4.607 7.763 7.935 14.731 8 17.17a8.009 8.009 0 0 1-8 8z" opacity="1" data-original="url(#g)"/>
    <path fill="url(#h)" d="M160 440a8 8 0 0 0-6.583 3.453C148.181 451.035 136 469.773 136 480a24 24 0 0 0 48 0c0-10.227-12.181-28.965-17.417-36.547A8 8 0 0 0 160 440zm0 48a8.009 8.009 0 0 1-8-7.994c.068-2.448 3.4-9.416 8-17.176 4.607 7.763 7.935 14.731 8 17.17a8.009 8.009 0 0 1-8 8z" opacity="1" data-original="url(#h)"/>
  </g>
</svg>
