<?xml version="1.0" encoding="UTF-8"?>
<svg xmlns="http://www.w3.org/2000/svg" xmlns:xlink="http://www.w3.org/1999/xlink" version="1.1" width="512" height="512" x="0" y="0" viewBox="0 0 513 513" style="enable-background:new 0 0 512 512" xml:space="preserve" class="">
  <g>
    <linearGradient id="a" x1="0" x2="513.001" y1="256.5" y2="256.5" gradientUnits="userSpaceOnUse">
      <stop stop-opacity="1" stop-color="#d8d8d8" offset="0"/>
      <stop stop-opacity="1" stop-color="#a9a9a9" offset="1"/>
    </linearGradient>
    <path fill="url(#a)" d="M492 94.5h-3.18l18.871-20.429A20 20 0 0 0 493 40.5H140c-33.084 0-60 26.916-60 60v78c0 11.046 8.954 20 20 20h19v60c0 11.046 8.954 20 20 20h108.414l-36.884 81.362a60.45 60.45 0 0 0-6.53-.362c-26.444 0-48.931 17.203-56.899 41H40v-380c0-11.046-8.954-20-20-20S0 9.454 0 20.5v472c0 11.046 8.954 20 20 20s20-8.954 20-20v-52h107.801c8.531 22.756 30.5 39 56.199 39 33.084 0 60-26.916 60-60 0-16.461-6.667-31.391-17.437-42.243l44.755-98.757H453c11.046 0 20-8.954 20-20v-24h19c11.046 0 20-8.954 20-20v-100c0-11.046-8.954-20-20-20zm-288 345c-11.028 0-20-8.972-20-20s8.972-20 20-20 20 8.972 20 20-8.972 20-20 20zm-84-339c0-11.028 8.972-20 20-20h307.298l-72.051 78H120zm352 94h-19c-11.046 0-20 8.954-20 20v24H159v-40h225a20 20 0 0 0 14.691-6.429l53.23-57.625c.359.019.714.054 1.078.054h19v60z" opacity="1" data-original="url(#a)" class=""/>
  </g>
</svg>
