<svg enable-background="new 0 0 64 64" viewBox="0 0 64 64" xmlns="http://www.w3.org/2000/svg"><g id="directional"/><g id="camera"/><g id="train_00000178892782225402504130000015690401494868509316_"/><g id="train"/><g id="do_not_disturb_00000063623877084305965540000014065032412018789053_"/><g id="do_not_disturb_00000034776432680539199770000007984210727708532380_"/><g id="do_not_disturb_00000132775779256058570160000007725190755847483553_"/><g id="do_not_disturb"/><g id="cruise_ship"/><g id="airport_check_in"/><g id="passport_00000054265535315127765580000007410325881619203231_"/><g id="vip_ticket_00000041986048335454509630000005438820234996332962_"/><g id="ticket_price"><path fill="#ffffff" d="m47.8 26.1c-7.8 0-14.2 6.4-14.2 14.2 0 7.9 6.4 14.2 14.2 14.2s14.2-6.4 14.2-14.2-6.4-14.2-14.2-14.2zm-2.6 12.2c.4.3 1.2.7 2.9 1.1 1.6.4 2.8.8 3.7 1.4.9.7 1.4 1.6 1.4 2.8s-.5 2.2-1.5 3c-.7.6-1.6 1-2.7 1.1v1.7c0 .6-.5 1-1 1s-1-.5-1-1v-1.7c-1.1-.1-2-.5-2.8-1.1-.9-.8-1.4-1.7-1.4-2.8 0-.6.4-1.1 1-1.1s1.1.4 1.1 1c0 .5.2.9.7 1.3.6.5 1.4.7 2.5.7 1 0 1.8-.2 2.4-.7.5-.4.7-.8.7-1.4 0-.7-.3-1-.5-1.2-.4-.3-1.2-.7-2.9-1.1-1.8-.3-3-.8-3.8-1.4-.9-.7-1.4-1.6-1.4-2.8s.5-2.2 1.5-3c.7-.6 1.6-1 2.7-1.1v-1.7c0-.6.5-1 1-1s1 .5 1 1v1.7c1.1.2 2 .5 2.8 1.2.9.7 1.4 1.7 1.4 2.8 0 .6-.4 1.1-1 1.1s-1.1-.4-1.1-1c0-.5-.2-.9-.7-1.3-.6-.5-1.4-.7-2.5-.7-1 0-1.8.2-2.4.7-.5.4-.7.8-.7 1.4.1.6.3.9.6 1.1z"/><path fill="#ffffff" d="m42.1 25.1c.7-.3 1.4-.5 2.1-.6.3-1.7 1.8-3 3.6-3 .6 0 1-.5 1-1v-8.2c0-1.5-1.2-2.8-2.8-2.8h-31.2v2.1 1.4c0 .6-.5 1-1 1-.6 0-1-.5-1-1v-1.6-2h-8c-1.6 0-2.8 1.3-2.8 2.8v8.2c0 .6.5 1 1 1 2 0 3.6 1.6 3.6 3.7 0 2-1.6 3.7-3.6 3.7-.6 0-1 .5-1 1v8.2c0 1.5 1.2 2.8 2.8 2.8h8v-2.1-1.6c0-.6.5-1 1-1 .6 0 1 .5 1 1v1.6 2.1h16.8c0-.1 0-.3 0-.4 0-.6 0-1.1.1-1.7.6-6.3 4.8-11.5 10.4-13.6zm-27.3 7.2c0 .6-.5 1-1 1-.6 0-1-.5-1-1v-4.8c0-.6.5-1 1-1 .6 0 1 .5 1 1zm0-9.6c0 .6-.5 1-1 1-.6 0-1-.5-1-1v-4.8c0-.6.5-1 1-1 .6 0 1 .5 1 1z"/></g><g id="cable_car"/><g id="swimming_pool"/><g id="arrival"/><g id="departure"/><g id="discount_coupon"/><g id="ticket_booking"/><g id="vip_ticket"/><g id="support_ticket"/><g id="ticket_sold_out"/><g id="checked_ticket"/><g id="online_ticket_00000018237942094179105910000007941614640990071223_"/><g id="online_ticket"/><g id="ticket_00000132787386559086070130000003581786009904772786_"/><g id="ticket"/><g id="plane_ticket"/><g id="worldwide_shipping"/><g id="aviation_security_00000040569115728037331830000013852783306513737093_"/><g id="aviation_security"/><g id="flight_dispatcher_00000180350717560613288360000018278251513545641606_"/><g id="chartered_flight"/><g id="cancel_flight"/><g id="compass_00000024707301156403386460000017384547609786364069_"/><g id="compass_app"/><g id="compass"/><g id="flight_dispatcher"/><g id="flight_delay"/><g id="flight_schedule_00000022535532625805573330000006856744830413468315_"/><g id="travel_website_00000047774854199427775640000015028895650002931351_"/><g id="travel_website"/><g id="flight_schedule"/><g id="immigration_document"/><g id="airplane_mode"/><g id="passport_00000059290082564803097050000005369525408468146859_"/><g id="passport"/><g id="traveling"/><g id="plane_trip"/><g id="plane"/></svg>