<svg id="Capa_1" enable-background="new 0 0 512 512" height="512" viewBox="0 0 512 512" width="512" xmlns="http://www.w3.org/2000/svg"><path d="m164.315 142.001 73.988-32.521-2.776-20.47c-.735-5.455-5.388-9.515-10.888-9.515h-120.646c-5.5 0-10.154 4.06-10.888 9.515l-2.776 20.47z" fill="#b9c1cb"/><path d="m177.348 136.275-13.032 5.73-73.987-32.53 2.771-20.464c.735-5.456 5.387-9.518 10.886-9.518h26.056c-5.499 0-10.151 4.062-10.886 9.518l-2.771 20.464z" fill="#909ba5"/><path d="m57.961 451.233h212.709v30.712h-212.709z" fill="#c6865c"/><path d="m264.734 109.478h-200.837c-22.128 0-40.067 17.938-40.067 40.067v227.497c0 22.128 17.938 40.067 40.067 40.067h200.838c22.128 0 40.067-17.938 40.067-40.067v-227.497c-.001-22.129-17.939-40.067-40.068-40.067z" fill="#da4a54"/><path d="m86.649 417.104h-22.756c-22.123 0-40.063-17.932-40.063-40.063v-227.494c0-22.131 17.941-40.072 40.063-40.072h22.755c-22.131 0-40.072 17.941-40.072 40.072v227.494c.001 22.131 17.942 40.063 40.073 40.063z" fill="#d82e3d"/><path d="m213.314 417.108-5.064-29.752c-1.178-6.929-7.188-12-14.219-12h-59.429c-7.038 0-13.041 5.071-14.226 12l-5.064 29.752" fill="#4d5961"/><path d="m131.641 172.121h-65.365c-10.706 0-19.385 8.679-19.385 19.385v61.406c0 10.706 8.679 19.385 19.385 19.385h65.366c10.706 0 19.385-8.679 19.385-19.385v-61.406c-.001-10.707-8.68-19.385-19.386-19.385z" fill="#d3effb"/><path d="m177.605 191.505v61.406c0 10.706 8.679 19.385 19.385 19.385h65.366c10.706 0 19.385-8.679 19.385-19.385v-61.406c0-10.706-8.679-19.385-19.385-19.385h-65.366c-10.706.001-19.385 8.679-19.385 19.385z" fill="#d3effb"/><circle cx="70.298" cy="342.522" fill="#ecbe6b" r="23.088"/><circle cx="258.333" cy="342.522" fill="#ecbe6b" r="23.088"/><circle cx="270.246" cy="141.059" fill="#e7ecf1" r="10.412"/><circle cx="58.385" cy="141.059" fill="#e7ecf1" r="10.412"/><path d="m192.946 153.354h-57.262c-6.27 0-11.354-5.083-11.354-11.354 0-6.27 5.083-11.354 11.354-11.354h57.262c6.27 0 11.354 5.083 11.354 11.354 0 6.271-5.083 11.354-11.354 11.354z" fill="#ecbe6b"/><path d="m97.088 417.104-9.535 26.168-22.32 61.228h-57.73l41.389-64.136 15.007-23.26z" fill="#b9c1cb"/><path d="m76.778 417.104-39.739 87.396h-29.536l56.396-87.396z" fill="#909ba5"/><path d="m321.135 504.5h-57.739l-22.319-61.228-9.535-26.168h33.196l15.008 23.26z" fill="#b9c1cb"/><g fill="#909ba5"><path d="m251.856 417.104 39.738 87.396h29.537l-56.397-87.396z"/><path d="m63.899 417.104h33.188l-9.535 26.167h-23.653c-5.31 0-10.373-1.035-15.008-2.907z"/><path d="m279.746 440.364c-4.635 1.873-9.706 2.907-15.008 2.907h-23.662l-9.535-26.167h33.197z"/><path d="m353.7 51.395h150.8v-43.895h-150.8c-11.965 0-21.665 9.7-21.665 21.665v.566c.001 11.965 9.7 21.664 21.665 21.664z"/><path d="m321.131 411.844h183.369v92.656h-183.369z"/></g><path d="m450.829 181.369h-80.532c-10.085 0-18.261-8.176-18.261-18.261v-29.986c0-10.085 8.176-18.261 18.261-18.261h80.532c10.085 0 18.261 8.176 18.261 18.261v29.986c0 10.085-8.176 18.261-18.261 18.261z" fill="#81a7c6"/><path d="m39.391 252.911c0 14.824 12.061 26.885 26.885 26.885h65.366c14.824 0 26.885-12.061 26.885-26.885v-61.406c0-14.824-12.061-26.884-26.885-26.884h-65.367c-14.824 0-26.885 12.06-26.885 26.884v61.406zm15-61.406c0-6.553 5.331-11.884 11.885-11.884h65.366c6.554 0 11.885 5.331 11.885 11.884v61.406c0 6.553-5.331 11.885-11.885 11.885h-65.367c-6.554 0-11.885-5.332-11.885-11.885v-61.406z"/><path d="m170.105 191.505v61.406c0 14.824 12.061 26.885 26.885 26.885h65.366c14.824 0 26.885-12.061 26.885-26.885v-61.406c0-14.824-12.061-26.884-26.885-26.884h-65.366c-14.825 0-26.885 12.06-26.885 26.884zm104.135 0v61.406c0 6.553-5.331 11.885-11.885 11.885h-65.366c-6.554 0-11.885-5.332-11.885-11.885v-61.406c0-6.553 5.331-11.884 11.885-11.884h65.366c6.554 0 11.885 5.331 11.885 11.884z"/><path d="m39.71 342.522c0 16.866 13.722 30.587 30.588 30.587 16.865 0 30.587-13.722 30.587-30.587 0-16.866-13.722-30.588-30.587-30.588-16.866 0-30.588 13.722-30.588 30.588zm46.175 0c0 8.595-6.992 15.587-15.587 15.587s-15.588-6.993-15.588-15.587c0-8.595 6.993-15.588 15.588-15.588s15.587 6.993 15.587 15.588z"/><path d="m258.333 311.934c-16.865 0-30.587 13.722-30.587 30.588s13.722 30.587 30.587 30.587c16.866 0 30.588-13.722 30.588-30.587 0-16.866-13.722-30.588-30.588-30.588zm0 46.175c-8.595 0-15.587-6.993-15.587-15.587 0-8.595 6.992-15.588 15.587-15.588s15.588 6.993 15.588 15.588-6.993 15.587-15.588 15.587z"/><path d="m288.158 141.059c0-9.877-8.035-17.912-17.912-17.912s-17.912 8.035-17.912 17.912 8.035 17.912 17.912 17.912 17.912-8.035 17.912-17.912zm-20.824 0c0-1.606 1.307-2.912 2.912-2.912s2.912 1.306 2.912 2.912-1.307 2.912-2.912 2.912-2.912-1.306-2.912-2.912z"/><path d="m76.297 141.059c0-9.877-8.035-17.912-17.912-17.912s-17.912 8.035-17.912 17.912 8.035 17.912 17.912 17.912 17.912-8.035 17.912-17.912zm-20.824 0c0-1.606 1.307-2.912 2.912-2.912s2.912 1.306 2.912 2.912-1.307 2.912-2.912 2.912-2.912-1.306-2.912-2.912z"/><path d="m192.946 123.147h-57.262c-10.396 0-18.854 8.458-18.854 18.854s8.458 18.854 18.854 18.854h57.262c10.396 0 18.854-8.458 18.854-18.854s-8.458-18.854-18.854-18.854zm0 22.707h-57.262c-2.125 0-3.854-1.729-3.854-3.854s1.729-3.854 3.854-3.854h57.262c2.125 0 3.854 1.729 3.854 3.854s-1.729 3.854-3.854 3.854z"/><path d="m210.714 300.051h-92.803c-4.143 0-7.5 3.358-7.5 7.5s3.357 7.5 7.5 7.5h92.803c4.143 0 7.5-3.358 7.5-7.5s-3.358-7.5-7.5-7.5z"/><path d="m210.714 322.273h-92.803c-4.143 0-7.5 3.358-7.5 7.5s3.357 7.5 7.5 7.5h92.803c4.143 0 7.5-3.358 7.5-7.5s-3.358-7.5-7.5-7.5z"/><path d="m504.5 0h-150.8c-16.081 0-29.164 13.083-29.164 29.165v.566c0 16.082 13.083 29.165 29.164 29.165h22.095v48.465h-5.498c-14.204 0-25.761 11.557-25.761 25.761v29.986c0 14.205 11.557 25.761 25.761 25.761h80.532c14.204 0 25.761-11.557 25.761-25.761v-29.986c0-14.205-11.557-25.761-25.761-25.761h-5.498v-48.465h51.669v345.449h-122.066c-4.143 0-7.5 3.358-7.5 7.5s3.357 7.5 7.5 7.5h122.066v77.655h-168.369v-77.656h16.303c4.143 0 7.5-3.358 7.5-7.5s-3.357-7.5-7.5-7.5h-23.803c-4.143 0-7.5 3.358-7.5 7.5v67.202l-36.242-56.16c20.103-5.556 34.912-23.998 34.912-45.844v-227.498c0-26.228-21.338-47.566-47.566-47.566h-19.879l-1.894-13.971c-1.23-9.129-9.106-16.013-18.321-16.013h-120.649c-9.216 0-17.092 6.885-18.319 16.007l-1.896 13.977h-19.88c-26.229 0-47.566 21.338-47.566 47.566v50.243c0 4.142 3.357 7.5 7.5 7.5s7.5-3.358 7.5-7.5v-50.243c0-17.957 14.609-32.566 32.566-32.566h174.344c.018 0 .035.002.053.002.012 0 .024-.002.036-.002h26.404c17.957 0 32.566 14.609 32.566 32.566v227.498c0 17.957-14.609 32.566-32.566 32.566h-45.09l-4.001-23.508c-1.796-10.571-10.886-18.244-21.613-18.244h-59.429c-10.72 0-19.812 7.669-21.619 18.241l-4.002 23.511h-45.083c-17.957 0-32.566-14.609-32.566-32.566v-147.255c0-4.142-3.357-7.5-7.5-7.5s-7.5 3.358-7.5 7.5v147.255c0 21.846 14.809 40.288 34.912 45.844l-50.045 77.547c-1.489 2.308-1.598 5.244-.284 7.655 1.314 2.412 3.84 3.912 6.586 3.912h57.737c3.151 0 5.968-1.971 7.047-4.932l6.424-17.627h171.214l6.424 17.627c1.079 2.961 3.896 4.932 7.047 4.932h241.107c4.143 0 7.5-3.358 7.5-7.5v-92.656-360.448-43.896c0-4.142-3.357-7.5-7.5-7.5zm-403.963 90.01c.231-1.719 1.717-3.016 3.455-3.016h120.648c1.738 0 3.224 1.297 3.457 3.023l1.622 11.961h-130.805zm125.756 334.598 6.97 19.125h-137.896l6.97-19.125zm-98.524-35.988c.571-3.34 3.444-5.764 6.833-5.764h59.429c3.388 0 6.258 2.421 6.825 5.759l3.573 20.993h-80.233zm-67.781 108.38h-38.722l46.717-72.392h18.39zm24.187-22.559 5.725-15.708h148.83l5.725 15.708zm184.468 22.559-26.384-72.392h18.39l46.716 72.392zm70.893-467.269v-.566c0-7.811 6.354-14.165 14.164-14.165h143.3v28.896h-143.3c-7.81 0-14.164-6.354-14.164-14.165zm122.054 103.391v29.986c0 5.934-4.827 10.761-10.761 10.761h-80.532c-5.934 0-10.761-4.828-10.761-10.761v-29.986c0-5.934 4.827-10.761 10.761-10.761h80.532c5.934 0 10.761 4.827 10.761 10.761zm-31.259-25.761h-39.536v-48.465h39.536z"/></svg>