<svg id="&#x56FE;&#x5C42;_1" enable-background="new 0 0 256 256" viewBox="0 0 256 256" xmlns="http://www.w3.org/2000/svg" xmlns:xlink="http://www.w3.org/1999/xlink"><linearGradient id="SVGID_1_" gradientUnits="userSpaceOnUse" x1="233" x2="71.531" y1="108.671" y2="108.671"><stop offset="0" stop-color="#64b236"/><stop offset=".3788" stop-color="#7ec828"/><stop offset=".7353" stop-color="#8fd61e"/><stop offset="1" stop-color="#95db1b"/></linearGradient><linearGradient id="SVGID_2_" gradientUnits="userSpaceOnUse" x1="108.258" x2="38.326" y1="27.854" y2="217.029"><stop offset=".00561798" stop-color="#c4c4c4"/><stop offset=".2291" stop-color="#bebebe"/><stop offset=".5179" stop-color="#aeaeae"/><stop offset=".8411" stop-color="#949494"/><stop offset="1" stop-color="#848484"/></linearGradient><g clip-rule="evenodd" fill-rule="evenodd"><path d="m155.2 45.9c19.4 21.4 12.8 36.5 77.8 57.6 1 .3-20.9 61.7-28.2 82-1.3 3.6-5.2 5.5-8.8 4.2-13-4.8-42.9-17.3-65.5-37.3-29.7-26.3-58.9-31-58.9-31l33.8-94.1c-.1 0 30.4-2.9 49.8 18.6z" fill="url(#SVGID_1_)"/><path id="XMLID_4_" d="m107.3 33.5h1.8c8.4 0 29.6 1.7 44.1 17.8 4.6 5.1 7.7 9.8 10.7 14.4 9.6 14.6 21.1 26.6 65.2 40.1.4-1.3.5.3.7-.5-48-15.9-56.3-28.6-66-43.2-3-4.6-6.1-9.3-10.7-14.4-14.5-16-35.7-17.8-44.1-17.8-.7 0-1.3 0-1.8 0l-32.2 89.5c.4.1.8.2 1.2.3z" fill="#fff" opacity=".2"/><path d="m102.2 28.2c1.4-3.4 5.3-4.9 8.6-3.3l4.7 2.2c3.3 1.6 4.9 5.6 3.5 9l-78.7 191.7c-1.4 3.4-5.3 4.9-8.6 3.3l-4.7-2.2c-3.3-1.6-4.9-5.6-3.5-9.1z" fill="url(#SVGID_2_)"/><path id="XMLID_2_" d="m26 222.7 78.7-191.6c.6-1.4 1.9-2.3 3.4-2.3.5 0 1.1.1 1.6.4l4.7 2.2c1.2.6 2.1 1.8 2.4 3.1.4-1.9-.6-4-2.4-4.9l-4.7-2.2c-.5-.2-1.1-.4-1.6-.4-1.5 0-2.8.9-3.4 2.3l-78.7 191.6c-.3.8-.4 1.7-.2 2.5.1-.2.1-.5.2-.7z" fill="#fff" opacity=".2"/></g></svg>