<svg height="512" viewBox="0 0 60 60" width="512" xmlns="http://www.w3.org/2000/svg"><g id="Page-1" fill="none" fill-rule="evenodd"><g id="015---Traffic-Warning" fill-rule="nonzero"><path id="Shape" d="m46 46v7c0 .5522847-.4477153 1-1 1h-30c-.5522847 0-1-.4477153-1-1v-7c0-2.209139 1.790861-4 4-4h24c2.209139 0 4 1.790861 4 4z" fill="#f7422b"/><path id="Shape" d="m42 42h-3c2.209139 0 4 1.790861 4 4v7c0 .5522847-.4477153 1-1 1h3c.5522847 0 1-.4477153 1-1v-7c0-2.209139-1.790861-4-4-4z" fill="#ca1c12"/><path id="Shape" d="m42 42h-24l1.33-4 1.21-3.62c.2728301-.8220846 1.04384-1.3751126 1.91-1.37l4.88-.01h5.34l4.9-.01c.8540072.0111116 1.6078371.5604451 1.88 1.37l1.22 3.64z" fill="#00a9f8"/><path id="Shape" d="m40.67 38-1.22-3.64c-.2721629-.8095549-1.0259928-1.3588884-1.88-1.37l-2.964.01c.8384711.0234545 1.5739229.5658701 1.844 1.36l1.22 3.64 1.33 4h3z" fill="#0078bf"/><circle id="Oval" cx="20" cy="48" fill="#ffe900" r="2"/><circle id="Oval" cx="40" cy="48" fill="#ffe900" r="2"/><path id="Shape" d="m16 54h6v4c0 .5522847-.4477153 1-1 1h-4c-.5522847 0-1-.4477153-1-1z" fill="#364750"/><path id="Shape" d="m38 54h6v4c0 .5522847-.4477153 1-1 1h-4c-.5522847 0-1-.4477153-1-1z" fill="#364750"/><path id="Shape" d="m19.33 38-1.33 4c-2.209139 0-4 1.790861-4 4v4h-12c-.55228475 0-1-.4477153-1-1v-7c0-2.209139 1.790861-4 4-4z" fill="#ff9600"/><path id="Shape" d="m16.33 38-1.33 4c-2.209139 0-4 1.790861-4 4v4h3v-4c0-2.209139 1.790861-4 4-4l1.33-4z" fill="#f77b00"/><path id="Shape" d="m27.33 33-4.88.01c-.86616-.0051126-1.6371699.5479154-1.91 1.37l-1.21 3.62h-14.33l2.54-7.62c.27283006-.8220846 1.04384002-1.3751126 1.91-1.37l15.12-.02c.8540072.0111116 1.6078371.5604451 1.88 1.37z" fill="#00a9f8"/><path id="Shape" d="m26.45 30.36c-.2721629-.8095549-1.0259928-1.3588884-1.88-1.37h-2.977c.845802.019859 1.5884231.567727 1.857 1.37l.88 2.64-4.88.01c-.86616-.0051126-1.6371699.5479154-1.91 1.37l-1.21 3.62h3l1.21-3.62c.2728301-.8220846 1.04384-1.3751126 1.91-1.37l4.88-.01z" fill="#0078bf"/><circle id="Oval" cx="7" cy="44" fill="#ffe900" r="2"/><path id="Shape" d="m3 50h6v4c0 .5522847-.44771525 1-1 1h-4c-.55228475 0-1-.4477153-1-1z" fill="#364750"/><path id="Shape" d="m59 42v7c0 .5522847-.4477153 1-1 1h-12v-4c0-2.209139-1.790861-4-4-4l-1.33-4h14.33c2.209139 0 4 1.790861 4 4z" fill="#673cbb"/><path id="Shape" d="m55 38h-3c2.209139 0 4 1.790861 4 4v7c0 .5522847-.4477153 1-1 1h3c.5522847 0 1-.4477153 1-1v-7c0-2.209139-1.790861-4-4-4z" fill="#4429a3"/><path id="Shape" d="m55 38h-14.33l-1.22-3.64c-.2721629-.8095549-1.0259928-1.3588884-1.88-1.37l-4.9.01.88-2.64c.2721629-.8095549 1.0259928-1.3588884 1.88-1.37l15.12.02c.86616-.0051126 1.6371699.5479154 1.91 1.37z" fill="#00a9f8"/><path id="Shape" d="m52.46 30.38c-.2728301-.8220846-1.04384-1.3751126-1.91-1.37l-15.12-.02c-.008 0-.015 0-.023 0l12.143.016c.86616-.0051126 1.6371699.5479154 1.91 1.37l2.54 7.624h3z" fill="#0078bf"/><circle id="Oval" cx="53" cy="44" fill="#ffda00" r="2"/><path id="Shape" d="m52 50h4c.5522847 0 1 .4477153 1 1v4h-6v-4c0-.5522847.4477153-1 1-1z" fill="#364750" transform="matrix(-1 0 0 -1 108 105)"/><path id="Shape" d="m44.643 21.668-12.893-19.714c-.3833195-.59472634-1.0424456-.95407092-1.75-.95407092s-1.3666805.35934458-1.75.95407092l-12.893 19.714c-.433868.6527849-.477129 1.4902451-.1128332 2.184261.3642959.6940159 1.0781351 1.1340667 1.8618332 1.147739h25.788c.7836981-.0136723 1.4975373-.4537231 1.8618332-1.147739.3642958-.6940159.3210348-1.5314761-.1128332-2.184261z" fill="#ffda00"/><path id="Shape" d="m44.643 21.668-12.893-19.714c-.3458365-.53528719-.9188609-.88154404-1.5535742-.93876589-.6347133-.05722184-1.2604274.18096413-1.6964258.64576589.0919078.09001258.1755749.18807043.25.293l12.893 19.714c.433868.6527849.477129 1.4902451.1128332 2.184261-.3642959.6940159-1.0781351 1.1340667-1.8618332 1.147739h3c.7836981-.0136723 1.4975373-.4537231 1.8618332-1.147739.3642958-.6940159.3210348-1.5314761-.1128332-2.184261z" fill="#ffbf00"/><g fill="#000"><path id="Shape" d="m20 45c-1.6568542 0-3 1.3431458-3 3s1.3431458 3 3 3 3-1.3431458 3-3-1.3431458-3-3-3zm0 4c-.5522847 0-1-.4477153-1-1s.4477153-1 1-1 1 .4477153 1 1-.4477153 1-1 1z"/><path id="Shape" d="m40 45c-1.6568542 0-3 1.3431458-3 3s1.3431458 3 3 3 3-1.3431458 3-3-1.3431458-3-3-3zm0 4c-.5522847 0-1-.4477153-1-1s.4477153-1 1-1 1 .4477153 1 1-.4477153 1-1 1z"/><path id="Shape" d="m34 45h-8c-.5522847 0-1 .4477153-1 1s.4477153 1 1 1h8c.5522847 0 1-.4477153 1-1s-.4477153-1-1-1z"/><path id="Shape" d="m34 49h-8c-.5522847 0-1 .4477153-1 1s.4477153 1 1 1h8c.5522847 0 1-.4477153 1-1s-.4477153-1-1-1z"/><path id="Shape" d="m7 41c-1.65685425 0-3 1.3431458-3 3s1.34314575 3 3 3 3-1.3431458 3-3-1.34314575-3-3-3zm0 4c-.55228475 0-1-.4477153-1-1s.44771525-1 1-1 1 .4477153 1 1-.44771525 1-1 1z"/><path id="Shape" d="m55.746 37.075-2.336-7.008c-.4077649-1.217996-1.5426282-2.0437526-2.827-2.057h-.032l-15.133-.02c-1.2806955.0143614-2.4117419.8383636-2.818 2.053l-.65 1.957h-3.9l-.65-1.957c-.4088467-1.2183624-1.5459081-2.0429427-2.831-2.053l-15.107.02h-.033c-1.28697554.0092064-2.42651432.8335451-2.838 2.053l-2.337 7.012c-2.43983739.3655556-4.24714674 2.4579389-4.254 4.925v7c0 1.1045695.8954305 2 2 2v3c0 1.1045695.8954305 2 2 2h4c1.1045695 0 2-.8954305 2-2v-3h3v2c0 1.1045695.8954305 2 2 2v3c0 1.1045695.8954305 2 2 2h4c1.1045695 0 2-.8954305 2-2v-3h14v3c0 1.1045695.8954305 2 2 2h4c1.1045695 0 2-.8954305 2-2v-3c1.1045695 0 2-.8954305 2-2v-2h3v3c0 1.1045695.8954305 2 2 2h4c1.1045695 0 2-.8954305 2-2v-3c1.1045695 0 2-.8954305 2-2v-7c-.0068533-2.4670611-1.8141626-4.5594444-4.254-4.925zm-21.246-6.399c.1331195-.4027755.5058767-.6777341.93-.686l15.133.02h.01c.4278203.0040378.8056775.2797932.94.686l2.1 6.3h-12.225l-.988-2.953c-.4072764-1.2213996-1.5484935-2.0467298-2.836-2.051h-3.507zm6.112 10.324h-21.224l2.1-6.308c.1367634-.4106469.5221861-.6866984.955-.684h.006l15.11-.016c.4283972.0024696.8076314.2775451.943.684zm-32.122-10.307c.13653473-.4084971.51928992-.683678.95-.683h.012l15.106-.02c.4283245.0045848.8067704.2798911.943.686l.443 1.324h-3.488c-1.2983425-.0102093-2.4549894.8183911-2.863 2.051l-.981 2.949h-12.224zm-.49 23.307h-4v-3h4zm1-5h-7v-7c0-1.6568542 1.34314575-3 3-3h12.946l-.667 2h-4.279c-.5522847 0-1 .4477153-1 1s.4477153 1 1 1h1.026c-.4545708.5887694-.7707242 1.2723442-.925 2h-.101c-.5522847 0-1 .4477153-1 1s.4477153 1 1 1v2zm12 9h-4v-3h4zm22 0h-4v-3h4zm1-5h-29v-7c0-1.6568542 1.3431458-3 3-3h24c1.6568542 0 3 1.3431458 3 3v7zm12 1h-4v-3h4zm2-5h-11v-2c.5522847 0 1-.4477153 1-1s-.4477153-1-1-1h-.1c-.1542758-.7276558-.4704292-1.4112306-.925-2h1.025c.5522847 0 1-.4477153 1-1s-.4477153-1-1-1h-4.279l-.667-2h12.946c1.6568542 0 3 1.3431458 3 3z"/><path id="Shape" d="m53 41c-1.6568542 0-3 1.3431458-3 3s1.3431458 3 3 3 3-1.3431458 3-3-1.3431458-3-3-3zm0 4c-.5522847 0-1-.4477153-1-1s.4477153-1 1-1 1 .4477153 1 1-.4477153 1-1 1z"/><path id="Shape" d="m17.106 26h25.788c1.1401754.0062056 2.1889224-.6230426 2.72-1.632.5558871-1.024961.5044262-2.2723118-.134-3.248l-12.894-19.713c-.5675506-.87726612-1.5411509-1.40697759-2.586-1.40697759s-2.0184494.52971147-2.586 1.40697759l-12.894 19.713c-.6384262.9756882-.6898871 2.223039-.134 3.248.5310776 1.0089574 1.5798246 1.6382056 2.72 1.632zm-.912-3.785 12.893-19.715c.1982423-.3127158.5427418-.50221507.913-.50221507s.7147577.18949927.913.50221507l12.893 19.715c.238693.35961.2575791.8221264.049 1.2-.1858284.3590119-.5567467.5840332-.961.583h-25.788c-.4042533.0010332-.7751716-.2239881-.961-.583-.2085791-.3778736-.189693-.84039.049-1.2z"/><circle id="Oval" cx="30" cy="20" r="1"/><path id="Shape" d="m30 17c.5522847 0 1-.4477153 1-1v-8c0-.55228475-.4477153-1-1-1s-1 .44771525-1 1v8c0 .5522847.4477153 1 1 1z"/></g></g></g></svg>