<svg id="Layer_1" enable-background="new 0 0 500 500" viewBox="0 0 500 500" xmlns="http://www.w3.org/2000/svg"><g clip-rule="evenodd" fill-rule="evenodd"><ellipse cx="131.32" cy="280.941" fill="#ffbf31" rx="41.329" ry="41.329" transform="matrix(.108 -.994 .994 .108 -162.126 381.251)"/><path d="m313.275 227.188c11.888.003 21.522 9.642 21.519 21.53s-9.642 21.522-21.53 21.519-21.522-9.642-21.519-21.53 9.642-21.522 21.53-21.519z" fill="#fa6e85"/><path d="m255.577 281.811c25.358.006 45.91 20.569 45.904 45.927-.007 25.359-20.569 45.911-45.927 45.904l-124.346-.031c-19.408-.005-35.139-15.743-35.134-35.152.005-21.058 18.387-37.368 39.325-34.886-5.319-30.459 18.067-58.46 49.09-58.452 24.923.006 45.567 18.311 49.233 42.208 6.5-3.52 13.944-5.52 21.855-5.518z" fill="#60b7fe"/><path d="m65.602 283.493c0 3.504-2.846 6.35-6.349 6.35h-12.4c-3.509 0-6.35-2.846-6.35-6.35s2.841-6.344 6.35-6.344h12.4c3.503-.001 6.349 2.84 6.349 6.344zm19.547-47.181c-2.485 2.474-6.502 2.474-8.981 0l-8.768-8.767c-2.477-2.482-2.477-6.499 0-8.981 2.482-2.482 6.499-2.482 8.976 0l8.773 8.773c2.476 2.476 2.476 6.498 0 8.975zm40.831-25.891v-12.399c0-3.504 2.841-6.35 6.344-6.35 3.515 0 6.35 2.846 6.35 6.35v12.399c0 3.504-2.835 6.35-6.35 6.35-3.504 0-6.344-2.846-6.344-6.35zm-23.938 129.394c0-17.282 15.112-30.615 32.213-28.592 4.225.5 7.734-3.215 7.002-7.398-4.654-26.594 15.817-51.021 42.821-51.021 21.274 0 39.75 15.828 42.976 36.814.666 4.354 5.459 6.7 9.292 4.622 26.055-14.126 58.398 4.679 58.398 34.802 0 21.825-17.749 39.569-39.563 39.569h-124.355c-15.866-.001-28.784-12.914-28.784-28.796zm28.88-92.505c-19.29 0-34.979 15.695-34.979 34.984 0 9.249 3.568 17.904 9.912 24.393 6.435-4.841 14.111-7.692 22.087-8.254-.671-17.754 7.189-34.929 21.119-46.052-5.418-3.3-11.644-5.071-18.139-5.071zm181.94-131.234c-70.177 0-128.57 55.082-133.582 124.258 17.828-1.5 34.918 5.326 46.785 18.637-5.229-51.559 35.229-96.212 86.798-96.212 21.172 0 41.2 7.5 57.045 21.226l33.064-33.059c-24.704-22.514-56.463-34.85-90.11-34.85zm0 149.117c-8.366 0-15.176-6.815-15.176-15.176 0-8.372 6.81-15.176 15.176-15.176s15.181 6.804 15.181 15.176c0 8.361-6.815 15.176-15.181 15.176zm140.285-21.526c-3.504 0-6.35 2.84-6.35 6.35 0 73.852-60.078 133.935-133.935 133.935-13.609 0-26.832-1.979-39.515-5.911 17.471-6.499 30.555-22.082 33.481-40.981 50.412 3.374 93.286-36.402 93.286-87.043 0-3.509-2.84-6.35-6.344-6.35s-6.35 2.84-6.35 6.35c0 21.659-9.393 42.206-25.767 56.365-15.09 13.047-34.679 19.455-54.434 17.974-2.796-31.28-32.654-53.233-63.459-46.303-3.621-8.88-5.456-18.289-5.456-28.036 0-41.109 33.449-74.564 74.558-74.564 17.781 0 34.604 6.205 48.031 17.556l-33.342 33.331c-18.384-11.441-42.559 1.764-42.559 23.676 0 15.363 12.501 27.875 27.87 27.875 21.872 0 35.147-24.142 23.671-42.57l106.804-106.804c2.482-2.477 2.482-6.499 0-8.981-2.482-2.477-6.499-2.477-8.982 0l-22.397 22.408c-57.462-52.803-146.326-51.253-202.01 3.621-26.452 26.062-41.799 60.495-43.543 97.394-1.904.631-3.766 1.359-5.585 2.188-8.447-6.82-18.904-10.538-29.897-10.538-26.292 0-47.678 21.392-47.678 47.683 0 12.737 4.959 24.628 13.769 33.503-4.937 6.954-7.671 15.336-7.671 24.018 0 22.884 18.616 41.494 41.484 41.494h116.7c20.391 10.169 42.356 15.337 65.336 15.337 80.854 0 146.634-65.775 146.634-146.629-.001-3.507-2.846-6.348-6.35-6.348z" fill="#1e2f3f"/></g></svg>