<svg height="512" viewBox="0 0 64 64" width="512" xmlns="http://www.w3.org/2000/svg"><g id="Layer_5" data-name="Layer 5"><path d="m55.692 8.19 6.6 37.422-23.637 4.168-5.209-29.544 5.388-4 7.067-.23-.7-3.94 2.26-4.46 5.909-1.042a2.006 2.006 0 0 1 2.322 1.626z" fill="#dbe6fd"/><path d="m54 11.11a1 1 0 0 1 -.983-.826l-.278-1.573a1 1 0 0 1 1.969-.348l.277 1.574a1 1 0 0 1 -.81 1.158 1.043 1.043 0 0 1 -.175.015z" fill="#fff"/><path d="m37.53 27.053-1.536-8.707-2.548 1.89 5.209 29.544 23.636-4.168-.791-4.507-3.114.549a18 18 0 0 1 -20.856-14.601z" fill="#bbcff2"/><path d="m46.952 41.742h6v6h-6z" fill="#a7d0e1" transform="matrix(.985 -.174 .174 .985 -7.01 9.354)"/><path d="m53.427 47.175-.966-5.475c-.417-.066-.835-.129-1.244-.224l-4.74.836 1.042 5.909 2.954-.521z" fill="#80bbce"/><g fill="#a7d0e1"><path d="m38.555 22.914h6v6h-6z" transform="matrix(.985 -.174 .174 .985 -3.869 7.61)"/><path d="m48.403 21.177h6v6h-6z" transform="matrix(.985 -.174 .174 .985 -3.417 9.293)"/><path d="m40.291 32.762h6v6h-6z" transform="matrix(.985 -.174 .174 .985 -5.552 8.061)"/></g><path d="m44.77 38.547a17.986 17.986 0 0 1 -4.86-5.235l-.094.016 1.042 5.909z" fill="#80bbce"/><path d="m50.14 31.025h6v6h-6z" fill="#a7d0e1" transform="matrix(.985 -.174 .174 .985 -5.101 9.745)"/><path d="m27.106 16.934-5.906 33.483-19.7-3.473 6.951-39.392a2.006 2.006 0 0 1 2.317-1.622l4.924.868 1.275 4.287 3.245 4.633z" fill="#dbe6fd"/><path d="m8.179 28.292 3.9-22.131-1.311-.231a2.006 2.006 0 0 0 -2.317 1.622l-6.946 39.392 19.7 3.473.613-3.474-.657-.115a16 16 0 0 1 -12.982-18.536z" fill="#bbcff2"/><path d="m8.874 42.727h6v6h-6z" fill="#a7d0e1" transform="matrix(.985 .174 -.174 .985 8.121 -1.367)"/><path d="m15.148 44.44a15.905 15.905 0 0 1 -1.948-1.526l-3.758-.663-1.042 5.909 2.954.521 2.955.521z" fill="#80bbce"/><path d="m7.437 34.863h12v4h-12z" fill="#a7d0e1" transform="matrix(.985 .174 -.174 .985 6.605 -1.773)"/><path d="m8.205 33.91-.329-.058-.7 3.939 2.463.434a15.954 15.954 0 0 1 -1.434-4.315z" fill="#80bbce"/><path d="m8.826 26.985h12v4h-12z" fill="#a7d0e1" transform="matrix(.985 .174 -.174 .985 5.258 -2.134)"/><path d="m10.216 19.106h12v4h-12z" fill="#a7d0e1" transform="matrix(.985 .174 -.174 .985 3.911 -2.495)"/><path d="m63 45v18h-62v-16l21 2 1 1v2l3 3v4l3-3v-3l-1-1v-3z" fill="#fcab68"/><path d="m4 48v-.714l-3-.286v16h62v-3h-47a12 12 0 0 1 -12-12z" fill="#ea8e49"/><path d="m29.06 18.4-6.06-3.5-1.466-5.467.266-4.464 9.526 5.5a2 2 0 0 1 .734 2.731z" fill="#dbe6fd"/><path d="m23.712 8.1-.094-.349a1.986 1.986 0 0 1 -.064-.637l.065-1.091-1.819-1.054-.268 4.464 1.468 5.467 6.062 3.5 1.366-2.366-1.128-.652a12 12 0 0 1 -5.588-7.282z" fill="#bbcff2"/><path d="m44.562 21.619a.992.992 0 0 0 -.748-.165l-5.908 1.046a1 1 0 0 0 -.81 1.158l1.041 5.909a1 1 0 0 0 .984.827.931.931 0 0 0 .174-.016l5.905-1.046a1 1 0 0 0 .811-1.158l-1.042-5.909a1 1 0 0 0 -.407-.646zm-4.629 6.612-.7-3.939 3.939-.7.7 3.939z"/><path d="m53.663 19.718-5.909 1.042a1 1 0 0 0 -.811 1.158l1.042 5.908a1 1 0 0 0 .984.826 1.052 1.052 0 0 0 .175-.015l5.909-1.037a1 1 0 0 0 .645-.411.991.991 0 0 0 .165-.747l-1.042-5.909a1 1 0 0 0 -1.158-.815zm-3.882 6.776-.7-3.938 3.939-.7.7 3.939z"/><path d="m46.3 31.467a.987.987 0 0 0 -.747-.165l-5.908 1.042a1 1 0 0 0 -.811 1.158l1.042 5.909a1 1 0 0 0 .984.826 1.014 1.014 0 0 0 .174-.015l5.906-1.042a1 1 0 0 0 .811-1.159l-1.042-5.909a1 1 0 0 0 -.409-.645zm-4.63 6.612-.7-3.939 3.938-.7.7 3.94z"/><path d="m49.49 30.607a1 1 0 0 0 -.81 1.159l1.042 5.909a1 1 0 0 0 .983.826.95.95 0 0 0 .175-.016l5.909-1.042a1 1 0 0 0 .811-1.158l-1.042-5.909a1 1 0 0 0 -1.159-.811zm2.028 5.736-.7-3.94 3.94-.7.7 3.939z"/><path d="m8.05 32.867a1 1 0 0 0 -1.158.811l-.7 3.939a1 1 0 0 0 .811 1.158l11.818 2.084a.931.931 0 0 0 .174.016 1 1 0 0 0 .984-.826l.7-3.94a1 1 0 0 0 -.811-1.158zm10.137 5.85-9.848-1.738.348-1.969 9.848 1.737z"/><path d="m21.372 32.17.694-3.94a1 1 0 0 0 -.81-1.158l-11.818-2.083a1 1 0 0 0 -1.158.811l-.694 3.938a1 1 0 0 0 .814 1.162l11.814 2.08a.923.923 0 0 0 .174.016 1 1 0 0 0 .984-.826zm-1.8-1.332-9.843-1.738.347-1.969 9.848 1.736z"/><path d="m22.762 24.292.694-3.939a1 1 0 0 0 -.81-1.159l-11.818-2.084a1 1 0 0 0 -1.158.811l-.7 3.939a1 1 0 0 0 .81 1.159l11.82 2.081a1 1 0 0 0 1.158-.811zm-1.8-1.332-9.849-1.737.348-1.97 9.848 1.737z"/><path d="m63.666 44.254a.978.978 0 0 0 -.641-.234l-6.348-36a3.006 3.006 0 0 0 -3.477-2.437l-5.908 1.042a1 1 0 0 0 -.718.532l-2.26 4.46a1 1 0 0 0 -.092.626l.7 3.94a1 1 0 0 0 1.969-.348l-.637-3.611 1.883-3.716 5.417-.956a1 1 0 0 1 1.159.811l6.317 35.856-6.969.8-.691-3.922a1 1 0 0 0 -.411-.646.99.99 0 0 0 -.747-.165l-5.912 1.038a1 1 0 0 0 -.811 1.158l.608 3.443-6.969.8-4.59-26.055 4.641-3.441 2.854-.094a1 1 0 0 0 -.031-2h-.033l-3.167.1a.983.983 0 0 0 -.564.2l-5.387 4a1 1 0 0 0 -.389.976l4.679 26.54-9.254 1.058a1 1 0 0 0 -.887.991v3a1 1 0 0 0 .293.707l.707.707v2.172l-1 1v-1.586a1 1 0 0 0 -.293-.707l-2.707-2.707v-1.586a1 1 0 0 0 -.293-.707l-1-1a.906.906 0 0 0 -.1-.072l4.943-28.032a1 1 0 0 0 -1.969-.347l-4.945 28.024-4.994-.476.692-3.923a1 1 0 0 0 -.811-1.158l-5.909-1.042a1 1 0 0 0 -1.158.81l-.8 4.553-4.995-.476 6.775-38.428a1.012 1.012 0 0 1 1.164-.812l4.315.762 1.1 3.694a1.023 1.023 0 0 0 .139.288l3.246 4.634a1 1 0 1 0 1.638-1.146l-3.152-4.5-1.235-4.133a1 1 0 0 0 -.785-.7l-4.925-.869a3.008 3.008 0 0 0 -3.474 2.434l-6.824 38.698a.985.985 0 0 0 -.316.184 1 1 0 0 0 -.327.74v16a1 1 0 0 0 1 1h62a1 1 0 0 0 1-1v-18a1 1 0 0 0 -.334-.746zm-12.092-1.829.5 2.818-3.982.455-.454-2.578zm-41.322.984 3.939.7-.545 3.1-4-.38zm51.748 6.591h-4a1 1 0 0 0 -.707.293l-1.707 1.707h-2.586a1 1 0 0 0 0 2h3a1 1 0 0 0 .707-.293l1.707-1.707h3.586v10h-13v-1.586l1.707-1.707a1 1 0 0 0 -1.414-1.414l-1.293 1.293-1-1v-2.586a1 1 0 0 0 -2 0v2h-1a1 1 0 0 0 0 2h1.586l1.414 1.414v1.586h-45v-13.9l6.287.6.006.009 3.293 3.291-7.293 7.293a1 1 0 1 0 1.414 1.414l1.622-1.622 4.475.895a.948.948 0 0 0 .196.02 1 1 0 0 0 .2-1.98l-3.168-.634 4.679-4.679a1 1 0 0 0 0-1.414l-2.301-2.293 10.137.965.453.453v1.582a1 1 0 0 0 .293.707l2.707 2.707v3.586a1 1 0 0 0 1.707.707l3-3a1 1 0 0 0 .293-.707v-3a1 1 0 0 0 -.293-.707l-.707-.707v-1.693l33-3.772z"/><path d="m22.032 15.155a1.007 1.007 0 0 0 .466.608l6.063 3.5a.991.991 0 0 0 .5.133 1 1 0 0 0 .867-.5l3-5.2a3 3 0 0 0 -1.1-4.1l-9.528-5.496a1 1 0 0 0 -1.5.806l-.268 4.464a.973.973 0 0 0 .032.318zm.668-8.511 8.126 4.691a1 1 0 0 1 .365 1.365l-2.5 4.33-4.838-2.793-1.311-4.907z"/><path d="m16.293 3.707a1 1 0 0 0 1.414-1.414l-1-1a1 1 0 0 0 -1.414 1.414z"/><path d="m23 3a1 1 0 0 0 .707-.293l1-1a1 1 0 0 0 -1.414-1.414l-1 1a1 1 0 0 0 .707 1.707z"/><path d="m41.293 10.707a1 1 0 0 0 1.414-1.414l-1-1a1 1 0 0 0 -1.414 1.414z"/><path d="m36 14h1a1 1 0 0 0 0-2h-1a1 1 0 0 0 0 2z"/><path d="m31.293 34.707a1 1 0 0 0 1.414-1.414l-1-1a1 1 0 0 0 -1.414 1.414z"/><path d="m30.707 27.293a1 1 0 0 0 -1.414 0l-1 1a1 1 0 1 0 1.414 1.414l1-1a1 1 0 0 0 0-1.414z"/></g></svg>