<svg height="512pt" viewBox="0 0 512 512" width="512pt" xmlns="http://www.w3.org/2000/svg"><path d="m467.460938 133.992188-122.152344-119.355469-21.332032 180.003906 68.332032 107.996094h75.152344zm0 0" fill="#ffc75c"/><path d="m223.152344 133.992188v168.644531h75.15625l47-20v-268zm0 0" fill="#ffd99f"/><path d="m345.308594 0-10.667969 25.304688 10.667969 16.636718 145.722656 142.386719 20.96875-21.457031zm0 0" fill="#f04000"/><path d="m178.617188 162.871094 20.964843 21.457031 145.726563-142.386719v-41.941406zm0 0" fill="#ff6200"/><path d="m392.308594 176.636719h-47l-10.667969 51.335937 10.667969 74.664063h47zm0 0" fill="#f79400"/><path d="m298.308594 176.636719h47v126h-47zm0 0" fill="#ffb11c"/><path d="m215.582031 53-.648437.074219-.636719.128906c-43.4375 8.890625-83.648437 32.15625-113.226563 65.515625-21.9375 24.738281-37.320312 53.632812-45.429687 84.941406l-9.136719-12.863281-24.457031 17.371094 38.410156 54.078125 54.082031-38.410156-17.375-24.457032-11.386718 8.089844c17.785156-62.144531 69.003906-111.210938 133.898437-124.742188.796875-.089843 2.308594-.253906 4.324219-.46875v-30.160156c-4.84375.492188-8.109375.867188-8.417969.902344zm0 0" fill="#c5d3dd"/><path d="m462.574219 398.734375-16.8125-64.167969-64.167969 16.816406 7.605469 29.019532 14.28125-3.742188c-20.367188 26.425782-47.351563 46.378906-77.835938 57.207032-2.171875.769531-4.035156 1.347656-5.644531 1.792968v30.703125c4.675781-.765625 9.910156-2.175781 15.683594-4.226562 37.195312-13.207031 69.898437-37.84375 94.03125-70.441407l3.839844 14.648438zm0 0" fill="#aab8c7"/><path d="m288.847656 343.355469-122.15625-119.355469-21.332031 180 68.332031 108h75.15625zm0 0" fill="#c3dce6"/><path d="m44.539062 343.355469v168.644531h75.152344l47-50.003906v-237.996094zm0 0" fill="#e1f0f5"/><path d="m166.691406 209.363281-10.667968 25.304688 10.667968 16.636719 145.726563 142.386718 20.964843-21.457031zm0 0" fill="#292929"/><path d="m0 372.234375 20.964844 21.457031 145.726562-142.386718v-41.941407zm0 0" fill="#4f4f4f"/><path d="m213.691406 386h-47l-10.667968 51.332031 10.667968 74.667969h47zm0 0" fill="#f04000"/><path d="m119.691406 386h47v126h-47zm0 0" fill="#ff6200"/></svg>