<svg xmlns="http://www.w3.org/2000/svg" version="1.1" xmlns:xlink="http://www.w3.org/1999/xlink" width="512" height="512" x="0" y="0" viewBox="0 0 100 100" style="enable-background:new 0 0 512 512" xml:space="preserve"><g><path d="M88.589 25.472a1.001 1.001 0 0 0-1.144-.037c-.038.024-3.846 2.441-9.263 1.833a16.518 16.518 0 0 1-2.827-.574c-4.954-1.465-6.38-3.47-8.94-6.525-3.405-4.062-5.587-5.994-10.338-7.398-1.796-.531-6.216-1.458-10.887-.929-2.117.24-3.839.672-5.024 1.039.048-1.587-.959-3.075-2.551-3.546a3.585 3.585 0 0 0-4.45 2.42L11.155 86.22a3.585 3.585 0 0 0 2.419 4.45c1.846.546 3.886-.505 4.449-2.419l11.159-37.753c.844-.322 2.942-1.031 5.794-1.353a25.257 25.257 0 0 1 8.824.529l.016.002c.003.001.005.003.008.003 4.5.956 7.742 3.659 10.619 7.091 2.639 3.149 5.628 5.893 9.907 7.158 1.667.493 3.468.757 5.181.757 5.06 0 8.412-2.157 8.57-2.26a1 1 0 0 0 .41-.552l2.61-8.829v-.001l2.609-8.828 2.609-8.828v-.001l2.61-8.829a.998.998 0 0 0-.36-1.085zm-18.316 1.113c1.34.857 2.827 1.527 4.516 2.026.656.194 1.326.338 1.999.459l-2.038 6.896a16.39 16.39 0 0 1-2.003-.444c-1.715-.507-3.182-1.215-4.486-2.13zM55.159 14.596c.118.033.232.057.351.092 2.331.689 4.223 1.71 5.929 3.148l-1.992 6.74c-1.744-1.332-3.675-2.296-5.979-2.977-.119-.035-.233-.058-.351-.091zm-4.564 8.388-2.041 6.904a27.187 27.187 0 0 0-7.103-.494l2.005-6.783a25.27 25.27 0 0 1 7.139.373zm-10.974-7.802c.684-.26 2.197-.777 4.281-1.137l-1.983 6.708a27.355 27.355 0 0 0-4.215.913zm-7.135 24.142 1.916-6.484c.684-.261 2.197-.778 4.281-1.137L36.7 38.411a27.22 27.22 0 0 0-4.214.913zm10.849 8.221a27.107 27.107 0 0 0-7.103-.494l2.005-6.783a25.26 25.26 0 0 1 7.139.373zm4.914-8.289c-.119-.035-.233-.058-.351-.091l2.043-6.911c.118.033.232.056.351.092 2.33.689 4.223 1.71 5.929 3.148l-1.992 6.739c-1.745-1.332-3.677-2.296-5.98-2.977zm10.498 19.268c-2.416-2.018-3.455-4.072-5.468-6.025l1.962-6.637c.623.667 1.21 1.357 1.812 2.076 1.096 1.308 2.244 2.647 3.683 3.857zm-.249-23.682 1.962-6.637a50.714 50.714 0 0 1 1.814 2.078c1.096 1.307 2.242 2.646 3.681 3.855l-1.989 6.728c-1.008-.942-1.872-1.969-2.771-3.041-.832-.993-1.697-2.012-2.697-2.983zm4.544 16.208 2.012-6.807c1.34.857 2.827 1.527 4.516 2.026.657.194 1.326.338 1.999.458l-2.038 6.897a16.578 16.578 0 0 1-2.003-.444c-1.716-.508-3.183-1.216-4.486-2.13zm13.664 9.877c-.903.5-3.802 1.868-7.759 1.728l2.022-6.843c.399.026.792.043 1.173.043a17.61 17.61 0 0 0 6.42-1.207zm5.22-17.662c-.898.493-3.807 1.883-7.764 1.743l2.026-6.854c.399.026.792.043 1.173.043a17.61 17.61 0 0 0 6.42-1.207z" fill="#ffffff" opacity="1" data-original="#000000"></path></g></svg>